SplineFontDB: 3.2
FontName: NotoSansOsage-Regular
FullName: Noto Sans Osage Regular
FamilyName: Noto Sans Osage
Weight: Book
Copyright: Copyright 2017-2022 Google Inc. All Rights Reserved.
Version: 2.001
ItalicAngle: 0
UnderlinePosition: -125
UnderlineWidth: 50
Ascent: 800
Descent: 200
InvalidEm: 0
sfntRevision: 0x00020042
LayerCount: 2
Layer: 0 1 "Back" 1
Layer: 1 1 "Fore" 0
XUID: [1021 460 424380926 11811075]
StyleMap: 0x0040
FSType: 0
OS2Version: 4
OS2_WeightWidthSlopeOnly: 1
OS2_UseTypoMetrics: 0
CreationTime: 1499375950
ModificationTime: 1641932036
PfmFamily: 17
TTFWeight: 400
TTFWidth: 5
LineGap: 0
VLineGap: 0
Panose: 2 11 5 2 4 5 4 2 2 4
OS2TypoAscent: 1069
OS2TypoAOffset: 0
OS2TypoDescent: -293
OS2TypoDOffset: 0
OS2TypoLinegap: 0
OS2WinAscent: 1069
OS2WinAOffset: 0
OS2WinDescent: 293
OS2WinDOffset: 0
HheadAscent: 1069
HheadAOffset: 0
HheadDescent: -293
HheadDOffset: 0
OS2SubXSize: 650
OS2SubYSize: 600
OS2SubXOff: 0
OS2SubYOff: 75
OS2SupXSize: 650
OS2SupYSize: 600
OS2SupXOff: 0
OS2SupYOff: 350
OS2StrikeYSize: 50
OS2StrikeYPos: 322
OS2CapHeight: 714
OS2XHeight: 536
OS2Vendor: 'GOOG'
OS2CodePages: 00000001.00000000
OS2UnicodeRanges: 00000043.02002000.00000000.00000000
Lookup: 257 0 0 "Single Positioning lookup 0" { "Single Positioning lookup 0 subtable"  } []

StartChar: .notdef
Encoding: 1114112 -1 0
Width: 600
GlyphClass: 1
Flags: W
LayerCount: 2
Fore
SplineSet
94 0 m 1,0,-1
 94 714 l 1,1,-1
 505 714 l 1,2,-1
 505 0 l 1,3,-1
 94 0 l 1,0,-1
145 51 m 1,4,-1
 454 51 l 1,5,-1
 454 663 l 1,6,-1
 145 663 l 1,7,-1
 145 51 l 1,4,-1
EndSplineSet
EndChar

StartChar: acutecomb
Encoding: 769 769 5
Width: 0
GlyphClass: 4
Flags: W
AnchorPoint: "Anchor-0" -300 600 mark 0
LayerCount: 2
Fore
SplineSet
-345 606 m 1,0,-1
 -345 618 l 1,1,2
 -330 637 -330 637 -312.5 663 c 128,-1,3
 -295 689 -295 689 -278 716.5 c 128,-1,4
 -261 744 -261 744 -250 766 c 1,5,-1
 -144 766 l 1,6,-1
 -144 756 l 1,7,8
 -156 738 -156 738 -181 709.5 c 128,-1,9
 -206 681 -206 681 -234.5 652.5 c 128,-1,10
 -263 624 -263 624 -287 606 c 1,11,-1
 -345 606 l 1,0,-1
EndSplineSet
EndChar

StartChar: uni0304
Encoding: 772 772 6
Width: 0
GlyphClass: 4
Flags: W
AnchorPoint: "Anchor-0" 0 600 mark 0
LayerCount: 2
Fore
SplineSet
-148 606 m 1,0,-1
 -148 677 l 1,1,-1
 149 677 l 1,2,-1
 149 606 l 1,3,-1
 -148 606 l 1,0,-1
EndSplineSet
EndChar

StartChar: uni030B
Encoding: 779 779 7
Width: 0
GlyphClass: 4
Flags: W
AnchorPoint: "Anchor-0" 10 600 mark 0
LayerCount: 2
Fore
SplineSet
20 606 m 1,0,-1
 20 618 l 1,1,2
 34 637 34 637 50 663 c 128,-1,3
 66 689 66 689 81.5 716.5 c 128,-1,4
 97 744 97 744 107 766 c 1,5,-1
 203 766 l 1,6,-1
 203 756 l 1,7,8
 193 739 193 739 170 710 c 128,-1,9
 147 681 147 681 120 652.5 c 128,-1,10
 93 624 93 624 70 606 c 1,11,-1
 20 606 l 1,0,-1
-126 606 m 1,12,-1
 -126 618 l 1,13,14
 -105 647 -105 647 -80 689.5 c 128,-1,15
 -55 732 -55 732 -39 766 c 1,16,-1
 57 766 l 1,17,-1
 57 756 l 1,18,19
 47 739 47 739 24 710 c 128,-1,20
 1 681 1 681 -26 652.5 c 128,-1,21
 -53 624 -53 624 -76 606 c 1,22,-1
 -126 606 l 1,12,-1
EndSplineSet
EndChar

StartChar: uni0358
Encoding: 856 856 8
Width: 0
GlyphClass: 4
Flags: W
AnchorPoint: "Anchor-1" 180 600 mark 0
LayerCount: 2
Fore
SplineSet
183 625 m 0,0,1
 161 625 161 625 146 639 c 128,-1,2
 131 653 131 653 131 681 c 0,3,4
 131 710 131 710 146 723.5 c 128,-1,5
 161 737 161 737 183 737 c 0,6,7
 203 737 203 737 218.5 723.5 c 128,-1,8
 234 710 234 710 234 681 c 0,9,10
 234 653 234 653 218.5 639 c 128,-1,11
 203 625 203 625 183 625 c 0,0,1
EndSplineSet
EndChar

StartChar: uni25CC
Encoding: 9676 9676 9
Width: 594
GlyphClass: 2
Flags: W
AnchorPoint: "Anchor-1" 580 410 basechar 0
AnchorPoint: "Anchor-0" 300 620 basechar 0
LayerCount: 2
Fore
SplineSet
297 540 m 0,0,1
 308 540 308 540 315.5 532.5 c 128,-1,2
 323 525 323 525 323 514 c 0,3,4
 323 504 323 504 315.5 496 c 128,-1,5
 308 488 308 488 297 488 c 0,6,7
 287 488 287 488 279 496 c 128,-1,8
 271 504 271 504 271 514 c 0,9,10
 271 525 271 525 279 532.5 c 128,-1,11
 287 540 287 540 297 540 c 0,0,1
213 522 m 0,12,13
 224 522 224 522 231.5 514.5 c 128,-1,14
 239 507 239 507 239 496 c 0,15,16
 239 486 239 486 231.5 478 c 128,-1,17
 224 470 224 470 213 470 c 0,18,19
 203 470 203 470 195 478 c 128,-1,20
 187 486 187 486 187 496 c 0,21,22
 187 507 187 507 195 514.5 c 128,-1,23
 203 522 203 522 213 522 c 0,12,13
381 522 m 0,24,25
 392 522 392 522 399.5 514.5 c 128,-1,26
 407 507 407 507 407 496 c 0,27,28
 407 486 407 486 399.5 478 c 128,-1,29
 392 470 392 470 381 470 c 0,30,31
 371 470 371 470 363 478 c 128,-1,32
 355 486 355 486 355 496 c 0,33,34
 355 507 355 507 363 514.5 c 128,-1,35
 371 522 371 522 381 522 c 0,24,25
113 449 m 0,36,37
 113 460 113 460 121 467.5 c 128,-1,38
 129 475 129 475 139 475 c 0,39,40
 150 475 150 475 157.5 467.5 c 128,-1,41
 165 460 165 460 165 449 c 0,42,43
 165 439 165 439 157.5 431 c 128,-1,44
 150 423 150 423 139 423 c 0,45,46
 129 423 129 423 121 431 c 128,-1,47
 113 439 113 439 113 449 c 0,36,37
429 449 m 0,48,49
 429 460 429 460 437 467.5 c 128,-1,50
 445 475 445 475 455 475 c 0,51,52
 466 475 466 475 473.5 467.5 c 128,-1,53
 481 460 481 460 481 449 c 0,54,55
 481 439 481 439 473.5 431 c 128,-1,56
 466 423 466 423 455 423 c 0,57,58
 445 423 445 423 437 431 c 128,-1,59
 429 439 429 439 429 449 c 0,48,49
66 375 m 0,60,61
 66 386 66 386 74 393.5 c 128,-1,62
 82 401 82 401 92 401 c 0,63,64
 103 401 103 401 110.5 393.5 c 128,-1,65
 118 386 118 386 118 375 c 0,66,67
 118 365 118 365 110.5 357 c 128,-1,68
 103 349 103 349 92 349 c 0,69,70
 82 349 82 349 74 357 c 128,-1,71
 66 365 66 365 66 375 c 0,60,61
476 375 m 0,72,73
 476 386 476 386 484 393.5 c 128,-1,74
 492 401 492 401 502 401 c 0,75,76
 513 401 513 401 520.5 393.5 c 128,-1,77
 528 386 528 386 528 375 c 0,78,79
 528 365 528 365 520.5 357 c 128,-1,80
 513 349 513 349 502 349 c 0,81,82
 492 349 492 349 484 357 c 128,-1,83
 476 365 476 365 476 375 c 0,72,73
48 291 m 0,84,85
 48 302 48 302 56 309.5 c 128,-1,86
 64 317 64 317 74 317 c 0,87,88
 85 317 85 317 92.5 309.5 c 128,-1,89
 100 302 100 302 100 291 c 0,90,91
 100 281 100 281 92.5 273 c 128,-1,92
 85 265 85 265 74 265 c 0,93,94
 64 265 64 265 56 273 c 128,-1,95
 48 281 48 281 48 291 c 0,84,85
494 291 m 0,96,97
 494 302 494 302 502 309.5 c 128,-1,98
 510 317 510 317 520 317 c 0,99,100
 531 317 531 317 538.5 309.5 c 128,-1,101
 546 302 546 302 546 291 c 0,102,103
 546 281 546 281 538.5 273 c 128,-1,104
 531 265 531 265 520 265 c 0,105,106
 510 265 510 265 502 273 c 128,-1,107
 494 281 494 281 494 291 c 0,96,97
66 207 m 0,108,109
 66 218 66 218 74 225.5 c 128,-1,110
 82 233 82 233 92 233 c 0,111,112
 103 233 103 233 110.5 225.5 c 128,-1,113
 118 218 118 218 118 207 c 0,114,115
 118 197 118 197 110.5 189 c 128,-1,116
 103 181 103 181 92 181 c 0,117,118
 82 181 82 181 74 189 c 128,-1,119
 66 197 66 197 66 207 c 0,108,109
476 207 m 0,120,121
 476 218 476 218 484 225.5 c 128,-1,122
 492 233 492 233 502 233 c 0,123,124
 513 233 513 233 520.5 225.5 c 128,-1,125
 528 218 528 218 528 207 c 0,126,127
 528 197 528 197 520.5 189 c 128,-1,128
 513 181 513 181 502 181 c 0,129,130
 492 181 492 181 484 189 c 128,-1,131
 476 197 476 197 476 207 c 0,120,121
113 133 m 0,132,133
 113 144 113 144 121 151.5 c 128,-1,134
 129 159 129 159 139 159 c 0,135,136
 150 159 150 159 157.5 151.5 c 128,-1,137
 165 144 165 144 165 133 c 0,138,139
 165 123 165 123 157.5 115 c 128,-1,140
 150 107 150 107 139 107 c 0,141,142
 129 107 129 107 121 115 c 128,-1,143
 113 123 113 123 113 133 c 0,132,133
429 133 m 0,144,145
 429 144 429 144 437 151.5 c 128,-1,146
 445 159 445 159 455 159 c 0,147,148
 466 159 466 159 473.5 151.5 c 128,-1,149
 481 144 481 144 481 133 c 0,150,151
 481 123 481 123 473.5 115 c 128,-1,152
 466 107 466 107 455 107 c 0,153,154
 445 107 445 107 437 115 c 128,-1,155
 429 123 429 123 429 133 c 0,144,145
213 112 m 0,156,157
 224 112 224 112 231.5 104.5 c 128,-1,158
 239 97 239 97 239 86 c 0,159,160
 239 76 239 76 231.5 68 c 128,-1,161
 224 60 224 60 213 60 c 0,162,163
 203 60 203 60 195 68 c 128,-1,164
 187 76 187 76 187 86 c 0,165,166
 187 97 187 97 195 104.5 c 128,-1,167
 203 112 203 112 213 112 c 0,156,157
381 112 m 0,168,169
 392 112 392 112 399.5 104.5 c 128,-1,170
 407 97 407 97 407 86 c 0,171,172
 407 76 407 76 399.5 68 c 128,-1,173
 392 60 392 60 381 60 c 0,174,175
 371 60 371 60 363 68 c 128,-1,176
 355 76 355 76 355 86 c 0,177,178
 355 97 355 97 363 104.5 c 128,-1,179
 371 112 371 112 381 112 c 0,168,169
297 94 m 0,180,181
 308 94 308 94 315.5 86.5 c 128,-1,182
 323 79 323 79 323 68 c 0,183,184
 323 58 323 58 315.5 50 c 128,-1,185
 308 42 308 42 297 42 c 0,186,187
 287 42 287 42 279 50 c 128,-1,188
 271 58 271 58 271 68 c 0,189,190
 271 79 271 79 279 86.5 c 128,-1,191
 287 94 287 94 297 94 c 0,180,181
EndSplineSet
EndChar

StartChar: u104B0
Encoding: 66736 66736 10
Width: 600
GlyphClass: 2
Flags: W
AnchorPoint: "Anchor-1" 460 600 basechar 0
AnchorPoint: "Anchor-0" 300 800 basechar 0
LayerCount: 2
Fore
SplineSet
0 0 m 1,0,-1
 255 714 l 1,1,-1
 345 714 l 1,2,-1
 600 0 l 1,3,-1
 506 0 l 1,4,-1
 345 458 l 2,5,6
 329 502 329 502 318.5 540.5 c 128,-1,7
 308 579 308 579 300 614 c 1,8,9
 293 579 293 579 282 540 c 128,-1,10
 271 501 271 501 255 456 c 2,11,-1
 95 0 l 1,12,-1
 0 0 l 1,0,-1
EndSplineSet
EndChar

StartChar: u104B1
Encoding: 66737 66737 11
Width: 600
GlyphClass: 2
Flags: W
AnchorPoint: "Anchor-1" 460 600 basechar 0
AnchorPoint: "Anchor-0" 300 800 basechar 0
LayerCount: 2
Fore
SplineSet
0 0 m 1,0,-1
 255 714 l 1,1,-1
 345 714 l 1,2,-1
 600 0 l 1,3,-1
 506 0 l 1,4,-1
 345 458 l 2,5,6
 329 502 329 502 318.5 540.5 c 128,-1,7
 308 579 308 579 300 614 c 1,8,9
 293 579 293 579 282 540 c 128,-1,10
 271 501 271 501 255 456 c 2,11,-1
 95 0 l 1,12,-1
 0 0 l 1,0,-1
262 0 m 1,13,-1
 262 184 l 1,14,-1
 338 184 l 1,15,-1
 338 0 l 1,16,-1
 262 0 l 1,13,-1
EndSplineSet
EndChar

StartChar: u104B3
Encoding: 66739 66739 13
Width: 566
GlyphClass: 2
Flags: W
AnchorPoint: "Anchor-1" 430 600 basechar 0
AnchorPoint: "Anchor-0" 285 800 basechar 0
LayerCount: 2
Fore
SplineSet
0 0 m 1,0,-1
 238 437 l 1,1,-1
 238 714 l 1,2,-1
 328 714 l 1,3,-1
 328 441 l 1,4,-1
 566 0 l 1,5,-1
 468 0 l 1,6,-1
 283 351 l 1,7,-1
 97 0 l 1,8,-1
 0 0 l 1,0,-1
EndSplineSet
EndChar

StartChar: u104B4
Encoding: 66740 66740 14
Width: 634
GlyphClass: 2
Flags: W
AnchorPoint: "Anchor-0" 335 800 basechar 0
LayerCount: 2
Fore
SplineSet
514 -141 m 1,0,-1
 368 149 l 1,1,-1
 351 149 l 2,2,3
 290 149 290 149 250 168.5 c 128,-1,4
 210 188 210 188 187 219 c 1,5,-1
 187 0 l 1,6,-1
 97 0 l 1,7,-1
 97 714 l 1,8,-1
 185 714 l 1,9,-1
 185 664 l 2,10,11
 185 630 185 630 183.5 603 c 128,-1,12
 182 576 182 576 180 559 c 1,13,-1
 185 559 l 1,14,15
 208 593 208 593 248 613.5 c 128,-1,16
 288 634 288 634 351 634 c 0,17,18
 418 634 418 634 467.5 602.5 c 128,-1,19
 517 571 517 571 544.5 515 c 128,-1,20
 572 459 572 459 572 387 c 0,21,22
 572 310 572 310 540 254 c 128,-1,23
 508 198 508 198 452 171 c 1,24,-1
 619 -141 l 1,25,-1
 514 -141 l 1,0,-1
338 227 m 0,26,27
 410 227 410 227 443.5 272.5 c 128,-1,28
 477 318 477 318 477 388 c 0,29,30
 477 459 477 459 443.5 507.5 c 128,-1,31
 410 556 410 556 336 556 c 0,32,33
 279 556 279 556 246.5 530.5 c 128,-1,34
 214 505 214 505 200.5 467 c 128,-1,35
 187 429 187 429 187 390 c 2,36,-1
 187 386 l 2,37,38
 187 350 187 350 200 313.5 c 128,-1,39
 213 277 213 277 246 252 c 128,-1,40
 279 227 279 227 338 227 c 0,26,27
EndSplineSet
EndChar

StartChar: u104B5
Encoding: 66741 66741 15
Width: 685
GlyphClass: 2
Flags: W
AnchorPoint: "Anchor-0" 390 800 basechar 0
LayerCount: 2
Fore
SplineSet
564 -229 m 1,0,1
 530 -204 530 -204 515 -162 c 128,-1,2
 500 -120 500 -120 500 -65 c 0,3,4
 500 -18 500 -18 507.5 22 c 128,-1,5
 515 62 515 62 522 104.5 c 128,-1,6
 529 147 529 147 529 199 c 0,7,8
 529 234 529 234 519.5 264.5 c 128,-1,9
 510 295 510 295 490 314 c 128,-1,10
 470 333 470 333 436 333 c 0,11,12
 386 333 386 333 364.5 300 c 128,-1,13
 343 267 343 267 343 199 c 0,14,15
 343 168 343 168 348.5 130.5 c 128,-1,16
 354 93 354 93 362.5 58.5 c 128,-1,17
 371 24 371 24 379 0 c 1,18,-1
 368 0 l 2,19,20
 211 0 211 0 130.5 94.5 c 128,-1,21
 50 189 50 189 50 358 c 0,22,23
 50 466 50 466 89.5 548.5 c 128,-1,24
 129 631 129 631 206 677.5 c 128,-1,25
 283 724 283 724 393 724 c 0,26,27
 443 724 443 724 496 712.5 c 128,-1,28
 549 701 549 701 589 684 c 1,29,-1
 555 607 l 1,30,31
 522 621 522 621 478.5 633 c 128,-1,32
 435 645 435 645 392 645 c 0,33,34
 277 645 277 645 211 568 c 128,-1,35
 145 491 145 491 145 357 c 0,36,37
 145 169 145 169 258 105 c 1,38,39
 254 131 254 131 251 156.5 c 128,-1,40
 248 182 248 182 248 204 c 0,41,42
 248 311 248 311 301 361.5 c 128,-1,43
 354 412 354 412 436 412 c 0,44,45
 524 412 524 412 574 361.5 c 128,-1,46
 624 311 624 311 624 204 c 0,47,48
 624 155 624 155 617 110 c 128,-1,49
 610 65 610 65 602.5 24.5 c 128,-1,50
 595 -16 595 -16 595 -53 c 256,51,52
 595 -90 595 -90 603 -120.5 c 128,-1,53
 611 -151 611 -151 635 -173 c 1,54,-1
 564 -229 l 1,0,1
EndSplineSet
EndChar

StartChar: u104B6
Encoding: 66742 66742 16
Width: 685
GlyphClass: 2
Flags: W
AnchorPoint: "Anchor-0" 390 800 basechar 0
LayerCount: 2
Fore
SplineSet
433 155 m 1,0,-1
 433 231 l 1,1,-1
 527 231 l 1,2,3
 522 273 522 273 500 303 c 128,-1,4
 478 333 478 333 436 333 c 0,5,6
 386 333 386 333 364.5 300 c 128,-1,7
 343 267 343 267 343 199 c 0,8,9
 343 168 343 168 348.5 130.5 c 128,-1,10
 354 93 354 93 362.5 58.5 c 128,-1,11
 371 24 371 24 379 0 c 1,12,-1
 368 0 l 2,13,14
 211 0 211 0 130.5 94.5 c 128,-1,15
 50 189 50 189 50 358 c 0,16,17
 50 466 50 466 89.5 548.5 c 128,-1,18
 129 631 129 631 206 677.5 c 128,-1,19
 283 724 283 724 393 724 c 0,20,21
 443 724 443 724 496 712.5 c 128,-1,22
 549 701 549 701 589 684 c 1,23,-1
 555 607 l 1,24,25
 522 621 522 621 478.5 633 c 128,-1,26
 435 645 435 645 392 645 c 0,27,28
 277 645 277 645 211 568 c 128,-1,29
 145 491 145 491 145 357 c 0,30,31
 145 169 145 169 258 105 c 1,32,33
 254 131 254 131 251 156.5 c 128,-1,34
 248 182 248 182 248 204 c 0,35,36
 248 311 248 311 301 361.5 c 128,-1,37
 354 412 354 412 436 412 c 256,38,39
 518 412 518 412 567.5 368 c 128,-1,40
 617 324 617 324 623 231 c 1,41,-1
 700 231 l 1,42,-1
 700 155 l 1,43,-1
 622 155 l 1,44,45
 617 97 617 97 606 44.5 c 128,-1,46
 595 -8 595 -8 595 -53 c 0,47,48
 595 -90 595 -90 603 -120.5 c 128,-1,49
 611 -151 611 -151 635 -173 c 1,50,-1
 564 -229 l 1,51,52
 530 -204 530 -204 515 -162 c 128,-1,53
 500 -120 500 -120 500 -65 c 0,54,55
 500 -25 500 -25 505.5 9.5 c 128,-1,56
 511 44 511 44 517.5 79 c 128,-1,57
 524 114 524 114 527 155 c 1,58,-1
 433 155 l 1,0,-1
EndSplineSet
EndChar

StartChar: u104B7
Encoding: 66743 66743 17
Width: 692
GlyphClass: 2
Flags: W
AnchorPoint: "Anchor-0" 310 800 basechar 0
LayerCount: 2
Fore
SplineSet
305 -20 m 0,0,1
 253 -20 253 -20 207 7.5 c 128,-1,2
 161 35 161 35 125.5 85 c 128,-1,3
 90 135 90 135 70 202.5 c 128,-1,4
 50 270 50 270 50 349 c 2,5,-1
 50 370 l 2,6,7
 50 449 50 449 70 516.5 c 128,-1,8
 90 584 90 584 125.5 634 c 128,-1,9
 161 684 161 684 207 711.5 c 128,-1,10
 253 739 253 739 305 739 c 0,11,12
 349 739 349 739 391 718 c 128,-1,13
 433 697 433 697 470.5 648 c 128,-1,14
 508 599 508 599 540 514 c 1,15,16
 545 546 545 546 548.5 583.5 c 128,-1,17
 552 621 552 621 552 664 c 2,18,-1
 552 720 l 1,19,-1
 642 713 l 1,20,-1
 642 665 l 2,21,22
 642 574 642 574 626.5 508.5 c 128,-1,23
 611 443 611 443 601 408 c 2,24,-1
 587 359 l 1,25,-1
 601 311 l 2,26,27
 612 276 612 276 627 210.5 c 128,-1,28
 642 145 642 145 642 54 c 2,29,-1
 642 6 l 1,30,-1
 552 -1 l 1,31,-1
 552 55 l 2,32,33
 552 99 552 99 548.5 136 c 128,-1,34
 545 173 545 173 540 204 c 1,35,36
 508 119 508 119 470.5 70.5 c 128,-1,37
 433 22 433 22 391 1 c 128,-1,38
 349 -20 349 -20 305 -20 c 0,0,1
303 59 m 0,39,40
 338 59 338 59 368.5 84.5 c 128,-1,41
 399 110 399 110 428.5 167 c 128,-1,42
 458 224 458 224 487 320 c 2,43,-1
 499 359 l 1,44,-1
 487 399 l 2,45,46
 458 496 458 496 429 553 c 128,-1,47
 400 610 400 610 369 635 c 128,-1,48
 338 660 338 660 303 660 c 0,49,50
 265 660 265 660 228.5 623 c 128,-1,51
 192 586 192 586 168.5 521 c 128,-1,52
 145 456 145 456 145 370 c 2,53,-1
 145 349 l 2,54,55
 145 264 145 264 168.5 198.5 c 128,-1,56
 192 133 192 133 228.5 96 c 128,-1,57
 265 59 265 59 303 59 c 0,39,40
EndSplineSet
EndChar

StartChar: u104B9
Encoding: 66745 66745 19
Width: 674
GlyphClass: 2
Flags: W
AnchorPoint: "Anchor-0" 300 800 basechar 0
LayerCount: 2
Fore
SplineSet
176 -20 m 0,0,1
 118 -20 118 -20 86.5 0 c 128,-1,2
 55 20 55 20 42.5 51.5 c 128,-1,3
 30 83 30 83 30 117 c 0,4,5
 30 149 30 149 45.5 193 c 128,-1,6
 61 237 61 237 95 277 c 1,7,-1
 178 251 l 1,8,9
 153 217 153 217 137.5 182.5 c 128,-1,10
 122 148 122 148 122 117 c 0,11,12
 122 96 122 96 132.5 77.5 c 128,-1,13
 143 59 143 59 180 59 c 0,14,15
 226 59 226 59 255 95.5 c 128,-1,16
 284 132 284 132 304 189 c 2,17,-1
 421 516 l 2,18,19
 442 573 442 573 467.5 620.5 c 128,-1,20
 493 668 493 668 533 696.5 c 128,-1,21
 573 725 573 725 637 725 c 0,22,23
 642 725 642 725 646 724.5 c 128,-1,24
 650 724 650 724 654 724 c 1,25,-1
 641 646 l 1,26,-1
 633 646 l 2,27,28
 587 646 587 646 560 609.5 c 128,-1,29
 533 573 533 573 513 516 c 2,30,-1
 396 189 l 2,31,32
 376 132 376 132 349 84.5 c 128,-1,33
 322 37 322 37 281 8.5 c 128,-1,34
 240 -20 240 -20 176 -20 c 0,0,1
EndSplineSet
EndChar

StartChar: u104BA
Encoding: 66746 66746 20
Width: 736
GlyphClass: 2
Flags: W
AnchorPoint: "Anchor-0" 300 820 basechar 0
LayerCount: 2
Fore
SplineSet
176 -20 m 0,0,1
 118 -20 118 -20 86.5 0 c 128,-1,2
 55 20 55 20 42.5 51.5 c 128,-1,3
 30 83 30 83 30 117 c 0,4,5
 30 149 30 149 45.5 193 c 128,-1,6
 61 237 61 237 95 277 c 1,7,-1
 178 251 l 1,8,9
 153 217 153 217 137.5 182.5 c 128,-1,10
 122 148 122 148 122 117 c 0,11,12
 122 96 122 96 132.5 77.5 c 128,-1,13
 143 59 143 59 180 59 c 0,14,15
 226 59 226 59 255 95.5 c 128,-1,16
 284 132 284 132 304 189 c 2,17,-1
 421 516 l 2,18,19
 440 570 440 570 463.5 615 c 128,-1,20
 487 660 487 660 523.5 689.5 c 128,-1,21
 560 719 560 719 616 724 c 1,22,-1
 616 795 l 1,23,-1
 696 795 l 1,24,-1
 696 571 l 1,25,-1
 616 571 l 1,26,-1
 616 644 l 1,27,28
 579 637 579 637 555 602 c 128,-1,29
 531 567 531 567 513 516 c 2,30,-1
 396 189 l 2,31,32
 376 132 376 132 349 84.5 c 128,-1,33
 322 37 322 37 281 8.5 c 128,-1,34
 240 -20 240 -20 176 -20 c 0,0,1
EndSplineSet
EndChar

StartChar: u104BB
Encoding: 66747 66747 21
Width: 692
GlyphClass: 2
Flags: W
AnchorPoint: "Anchor-1" 660 600 basechar 0
AnchorPoint: "Anchor-0" 350 800 basechar 0
LayerCount: 2
Fore
SplineSet
162 0 m 1,0,-1
 82 338 l 2,1,2
 75 367 75 367 68.5 401.5 c 128,-1,3
 62 436 62 436 62 465 c 0,4,5
 62 542 62 542 91.5 600.5 c 128,-1,6
 121 659 121 659 183.5 691.5 c 128,-1,7
 246 724 246 724 346 724 c 256,8,9
 446 724 446 724 508.5 691.5 c 128,-1,10
 571 659 571 659 600.5 600.5 c 128,-1,11
 630 542 630 542 630 465 c 0,12,13
 630 436 630 436 623.5 401.5 c 128,-1,14
 617 367 617 367 610 338 c 2,15,-1
 530 0 l 1,16,-1
 440 0 l 1,17,-1
 520 336 l 2,18,19
 528 367 528 367 534 398 c 128,-1,20
 540 429 540 429 540 463 c 0,21,22
 540 550 540 550 496.5 598 c 128,-1,23
 453 646 453 646 346 646 c 0,24,25
 240 646 240 646 196 598 c 128,-1,26
 152 550 152 550 152 463 c 0,27,28
 152 429 152 429 158.5 398 c 128,-1,29
 165 367 165 367 172 336 c 2,30,-1
 252 0 l 1,31,-1
 162 0 l 1,0,-1
EndSplineSet
Position2: "Single Positioning lookup 2 subtable" dx=0 dy=0 dh=60 dv=0
EndChar

StartChar: u104BC
Encoding: 66748 66748 22
Width: 659
GlyphClass: 2
Flags: W
AnchorPoint: "Anchor-0" 320 800 basechar 0
LayerCount: 2
Fore
SplineSet
406 -240 m 0,0,1
 381 -240 381 -240 362.5 -236.5 c 128,-1,2
 344 -233 344 -233 330 -227 c 1,3,-1
 330 -151 l 1,4,5
 346 -155 346 -155 365 -158 c 128,-1,6
 384 -161 384 -161 406 -161 c 0,7,8
 432 -161 432 -161 455.5 -151.5 c 128,-1,9
 479 -142 479 -142 494.5 -117.5 c 128,-1,10
 510 -93 510 -93 510 -50 c 2,11,-1
 510 185 l 2,12,13
 510 276 510 276 472.5 316 c 128,-1,14
 435 356 435 356 359 356 c 0,15,16
 270 356 270 356 228.5 297.5 c 128,-1,17
 187 239 187 239 187 144 c 2,18,-1
 187 0 l 1,19,-1
 97 0 l 1,20,-1
 97 714 l 1,21,-1
 187 714 l 1,22,-1
 187 372 l 1,23,-1
 533 714 l 1,24,-1
 648 714 l 1,25,-1
 356 433 l 1,26,27
 361 434 361 434 365.5 434 c 128,-1,28
 370 434 370 434 374 434 c 0,29,30
 482 434 482 434 541 376 c 128,-1,31
 600 318 600 318 600 196 c 2,32,-1
 600 -44 l 2,33,34
 600 -144 600 -144 546 -192 c 128,-1,35
 492 -240 492 -240 406 -240 c 0,0,1
EndSplineSet
EndChar

StartChar: u104BD
Encoding: 66749 66749 23
Width: 659
GlyphClass: 2
Flags: W
AnchorPoint: "Anchor-0" 320 800 basechar 0
LayerCount: 2
Fore
SplineSet
406 -240 m 0,0,1
 381 -240 381 -240 362.5 -236.5 c 128,-1,2
 344 -233 344 -233 330 -227 c 1,3,-1
 330 -151 l 1,4,5
 346 -155 346 -155 365 -158 c 128,-1,6
 384 -161 384 -161 406 -161 c 0,7,8
 432 -161 432 -161 455.5 -151.5 c 128,-1,9
 479 -142 479 -142 494.5 -117.5 c 128,-1,10
 510 -93 510 -93 510 -50 c 2,11,-1
 510 185 l 2,12,13
 510 276 510 276 472.5 316 c 128,-1,14
 435 356 435 356 359 356 c 0,15,16
 270 356 270 356 228.5 297.5 c 128,-1,17
 187 239 187 239 187 144 c 2,18,-1
 187 0 l 1,19,-1
 97 0 l 1,20,-1
 97 566 l 1,21,-1
 17 566 l 1,22,-1
 17 642 l 1,23,-1
 97 642 l 1,24,-1
 97 714 l 1,25,-1
 187 714 l 1,26,-1
 187 642 l 1,27,-1
 284 642 l 1,28,-1
 284 566 l 1,29,-1
 187 566 l 1,30,-1
 187 372 l 1,31,-1
 533 714 l 1,32,-1
 648 714 l 1,33,-1
 356 433 l 1,34,35
 361 434 361 434 365.5 434 c 128,-1,36
 370 434 370 434 374 434 c 0,37,38
 482 434 482 434 541 376 c 128,-1,39
 600 318 600 318 600 196 c 2,40,-1
 600 -44 l 2,41,42
 600 -144 600 -144 546 -192 c 128,-1,43
 492 -240 492 -240 406 -240 c 0,0,1
EndSplineSet
EndChar

StartChar: u104BE
Encoding: 66750 66750 24
Width: 659
GlyphClass: 2
Flags: W
AnchorPoint: "Anchor-0" 320 800 basechar 0
LayerCount: 2
Fore
SplineSet
611 -256 m 1,0,1
 602 -231 602 -231 592 -213.5 c 128,-1,2
 582 -196 582 -196 574 -182 c 1,3,4
 557 -211 557 -211 519.5 -229 c 128,-1,5
 482 -247 482 -247 435 -247 c 0,6,7
 366 -247 366 -247 320.5 -215 c 128,-1,8
 275 -183 275 -183 275 -131 c 0,9,10
 275 -80 275 -80 317 -47.5 c 128,-1,11
 359 -15 359 -15 432 -15 c 0,12,13
 451 -15 451 -15 472.5 -18 c 128,-1,14
 494 -21 494 -21 510 -27 c 1,15,-1
 510 185 l 2,16,17
 510 276 510 276 472.5 316 c 128,-1,18
 435 356 435 356 359 356 c 0,19,20
 270 356 270 356 228.5 297.5 c 128,-1,21
 187 239 187 239 187 144 c 2,22,-1
 187 0 l 1,23,-1
 97 0 l 1,24,-1
 97 714 l 1,25,-1
 187 714 l 1,26,-1
 187 372 l 1,27,-1
 533 714 l 1,28,-1
 648 714 l 1,29,-1
 356 433 l 1,30,31
 361 434 361 434 365.5 434 c 128,-1,32
 370 434 370 434 374 434 c 0,33,34
 482 434 482 434 541 376 c 128,-1,35
 600 318 600 318 600 196 c 2,36,-1
 600 -89 l 1,37,38
 621 -114 621 -114 640.5 -144.5 c 128,-1,39
 660 -175 660 -175 677 -223 c 1,40,-1
 611 -256 l 1,0,1
436 -175 m 0,41,42
 471 -175 471 -175 490 -159 c 128,-1,43
 509 -143 509 -143 510 -107 c 1,44,45
 495 -95 495 -95 475 -91 c 128,-1,46
 455 -87 455 -87 439 -87 c 0,47,48
 405 -87 405 -87 383.5 -97 c 128,-1,49
 362 -107 362 -107 362 -132 c 0,50,51
 362 -150 362 -150 382.5 -162.5 c 128,-1,52
 403 -175 403 -175 436 -175 c 0,41,42
EndSplineSet
EndChar

StartChar: u104BF
Encoding: 66751 66751 25
Width: 694
GlyphClass: 2
Flags: W
AnchorPoint: "Anchor-0" 400 800 basechar 0
LayerCount: 2
Fore
SplineSet
353 -10 m 0,0,1
 246 -10 246 -10 181.5 27 c 128,-1,2
 117 64 117 64 88.5 127 c 128,-1,3
 60 190 60 190 60 266 c 0,4,5
 60 371 60 371 103.5 487.5 c 128,-1,6
 147 604 147 604 247 714 c 1,7,-1
 361 714 l 1,8,9
 273 618 273 618 229 535.5 c 128,-1,10
 185 453 185 453 170.5 385 c 128,-1,11
 156 317 156 317 156 264 c 0,12,13
 156 206 156 206 175.5 162 c 128,-1,14
 195 118 195 118 238.5 93 c 128,-1,15
 282 68 282 68 353 68 c 0,16,17
 507 68 507 68 559 190 c 1,18,-1
 654 190 l 1,19,20
 620 96 620 96 544.5 43 c 128,-1,21
 469 -10 469 -10 353 -10 c 0,0,1
EndSplineSet
EndChar

StartChar: u104C0
Encoding: 66752 66752 26
Width: 805
GlyphClass: 2
Flags: W
AnchorPoint: "Anchor-0" 465 800 basechar 0
LayerCount: 2
Fore
SplineSet
90 0 m 1,0,-1
 90 449 l 2,1,2
 90 518 90 518 114 569.5 c 128,-1,3
 138 621 138 621 177 655.5 c 128,-1,4
 216 690 216 690 263.5 707.5 c 128,-1,5
 311 725 311 725 357 725 c 0,6,7
 417 725 417 725 468 707 c 1,8,9
 528 725 528 725 597 725 c 0,10,11
 652 725 652 725 708.5 713 c 128,-1,12
 765 701 765 701 805 681 c 1,13,-1
 780 610 l 1,14,15
 747 625 747 625 696.5 637 c 128,-1,16
 646 649 646 649 598 649 c 0,17,18
 589 649 589 649 580.5 649 c 128,-1,19
 572 649 572 649 564 648 c 1,20,21
 599 613 599 613 618 562.5 c 128,-1,22
 637 512 637 512 637 447 c 0,23,24
 637 366 637 366 610.5 317.5 c 128,-1,25
 584 269 584 269 541.5 247 c 128,-1,26
 499 225 499 225 451 225 c 0,27,28
 404 225 404 225 361.5 247 c 128,-1,29
 319 269 319 269 292.5 317.5 c 128,-1,30
 266 366 266 366 266 447 c 0,31,32
 266 513 266 513 290 563.5 c 128,-1,33
 314 614 314 614 356 649 c 1,34,35
 309 647 309 647 269 624 c 128,-1,36
 229 601 229 601 204.5 550.5 c 128,-1,37
 180 500 180 500 180 416 c 2,38,-1
 180 0 l 1,39,-1
 90 0 l 1,0,-1
453 298 m 0,40,41
 490 298 490 298 518 332 c 128,-1,42
 546 366 546 366 546 443 c 0,43,44
 546 514 546 514 523 558 c 128,-1,45
 500 602 500 602 463 624 c 1,46,47
 414 602 414 602 385.5 558 c 128,-1,48
 357 514 357 514 357 443 c 0,49,50
 357 366 357 366 385.5 332 c 128,-1,51
 414 298 414 298 453 298 c 0,40,41
EndSplineSet
EndChar

StartChar: u104C1
Encoding: 66753 66753 27
Width: 782
GlyphClass: 2
Flags: W
AnchorPoint: "Anchor-0" 465 800 basechar 0
LayerCount: 2
Fore
SplineSet
461 -10 m 0,0,1
 373 -10 373 -10 310.5 20.5 c 128,-1,2
 248 51 248 51 209.5 103.5 c 128,-1,3
 171 156 171 156 154 222 c 1,4,-1
 75 0 l 1,5,-1
 -20 0 l 1,6,-1
 236 714 l 1,7,-1
 330 714 l 1,8,-1
 248 486 l 2,9,10
 238 459 238 459 234 421.5 c 128,-1,11
 230 384 230 384 230 334 c 0,12,13
 230 259 230 259 254.5 198.5 c 128,-1,14
 279 138 279 138 330.5 103 c 128,-1,15
 382 68 382 68 461 68 c 0,16,17
 615 68 615 68 667 190 c 1,18,-1
 762 190 l 1,19,20
 728 96 728 96 652.5 43 c 128,-1,21
 577 -10 577 -10 461 -10 c 0,0,1
EndSplineSet
EndChar

StartChar: u104C2
Encoding: 66754 66754 28
Width: 781
GlyphClass: 2
Flags: W
AnchorPoint: "Anchor-1" 710 600 basechar 0
AnchorPoint: "Anchor-0" 390 800 basechar 0
LayerCount: 2
Fore
SplineSet
391 -10 m 0,0,1
 280 -10 280 -10 206.5 36 c 128,-1,2
 133 82 133 82 97 165 c 128,-1,3
 61 248 61 248 61 359 c 0,4,5
 61 469 61 469 97 551 c 128,-1,6
 133 633 133 633 206.5 679 c 128,-1,7
 280 725 280 725 392 725 c 0,8,9
 499 725 499 725 572 679.5 c 128,-1,10
 645 634 645 634 682.5 551.5 c 128,-1,11
 720 469 720 469 720 358 c 256,12,13
 720 247 720 247 682.5 164.5 c 128,-1,14
 645 82 645 82 572 36 c 128,-1,15
 499 -10 499 -10 391 -10 c 0,0,1
391 68 m 0,16,17
 513 68 513 68 569 145.5 c 128,-1,18
 625 223 625 223 625 358 c 256,19,20
 625 493 625 493 569 569.5 c 128,-1,21
 513 646 513 646 392 646 c 256,22,23
 271 646 271 646 213.5 569.5 c 128,-1,24
 156 493 156 493 156 358 c 256,25,26
 156 223 156 223 213 145.5 c 128,-1,27
 270 68 270 68 391 68 c 0,16,17
EndSplineSet
EndChar

StartChar: u104C4
Encoding: 66756 66756 30
Width: 632
GlyphClass: 2
Flags: W
AnchorPoint: "Anchor-0" 345 800 basechar 0
LayerCount: 2
Fore
SplineSet
97 0 m 1,0,-1
 97 714 l 1,1,-1
 185 714 l 1,2,-1
 185 634 l 2,3,4
 185 600 185 600 183.5 573 c 128,-1,5
 182 546 182 546 180 529 c 1,6,-1
 185 529 l 1,7,8
 208 563 208 563 248 583.5 c 128,-1,9
 288 604 288 604 351 604 c 0,10,11
 418 604 418 604 467.5 572.5 c 128,-1,12
 517 541 517 541 544.5 485 c 128,-1,13
 572 429 572 429 572 357 c 256,14,15
 572 285 572 285 544.5 231.5 c 128,-1,16
 517 178 517 178 467 148.5 c 128,-1,17
 417 119 417 119 351 119 c 0,18,19
 290 119 290 119 250 138.5 c 128,-1,20
 210 158 210 158 187 189 c 1,21,-1
 187 0 l 1,22,-1
 97 0 l 1,0,-1
338 197 m 0,23,24
 410 197 410 197 443.5 242.5 c 128,-1,25
 477 288 477 288 477 358 c 0,26,27
 477 429 477 429 443.5 477.5 c 128,-1,28
 410 526 410 526 336 526 c 0,29,30
 279 526 279 526 246.5 500.5 c 128,-1,31
 214 475 214 475 200.5 437 c 128,-1,32
 187 399 187 399 187 360 c 2,33,-1
 187 356 l 2,34,35
 187 320 187 320 200 283.5 c 128,-1,36
 213 247 213 247 246 222 c 128,-1,37
 279 197 279 197 338 197 c 0,23,24
EndSplineSet
EndChar

StartChar: u104C5
Encoding: 66757 66757 31
Width: 632
GlyphClass: 2
Flags: W
AnchorPoint: "Anchor-0" 345 800 basechar 0
LayerCount: 2
Fore
SplineSet
97 0 m 1,0,-1
 97 317 l 1,1,-1
 20 317 l 1,2,-1
 20 393 l 1,3,-1
 97 393 l 1,4,-1
 97 714 l 1,5,-1
 185 714 l 1,6,-1
 185 634 l 2,7,8
 185 600 185 600 183.5 573 c 128,-1,9
 182 546 182 546 180 529 c 1,10,-1
 185 529 l 1,11,12
 208 563 208 563 248 583.5 c 128,-1,13
 288 604 288 604 351 604 c 0,14,15
 418 604 418 604 467.5 572.5 c 128,-1,16
 517 541 517 541 544.5 485 c 128,-1,17
 572 429 572 429 572 357 c 256,18,19
 572 285 572 285 544.5 231.5 c 128,-1,20
 517 178 517 178 467 148.5 c 128,-1,21
 417 119 417 119 351 119 c 0,22,23
 290 119 290 119 250 138.5 c 128,-1,24
 210 158 210 158 187 189 c 1,25,-1
 187 0 l 1,26,-1
 97 0 l 1,0,-1
338 197 m 0,27,28
 410 197 410 197 443.5 242.5 c 128,-1,29
 477 288 477 288 477 358 c 0,30,31
 477 429 477 429 443.5 477.5 c 128,-1,32
 410 526 410 526 336 526 c 0,33,34
 287 526 287 526 256.5 507 c 128,-1,35
 226 488 226 488 210 457.5 c 128,-1,36
 194 427 194 427 189 393 c 1,37,-1
 287 393 l 1,38,-1
 287 317 l 1,39,-1
 190 317 l 1,40,41
 196 286 196 286 212 259 c 128,-1,42
 228 232 228 232 258.5 214.5 c 128,-1,43
 289 197 289 197 338 197 c 0,27,28
EndSplineSet
EndChar

StartChar: u104C6
Encoding: 66758 66758 32
Width: 565
GlyphClass: 2
Flags: W
AnchorPoint: "Anchor-0" 325 800 basechar 0
LayerCount: 2
Fore
SplineSet
460 -18 m 1,0,1
 328 57 328 57 248 127 c 128,-1,2
 168 197 168 197 127.5 259.5 c 128,-1,3
 87 322 87 322 73.5 372.5 c 128,-1,4
 60 423 60 423 60 458 c 0,5,6
 60 536 60 536 89 596 c 128,-1,7
 118 656 118 656 176.5 690 c 128,-1,8
 235 724 235 724 323 724 c 0,9,10
 436 724 436 724 520 682 c 1,11,-1
 484 606 l 1,12,13
 451 621 451 621 410.5 633 c 128,-1,14
 370 645 370 645 322 645 c 0,15,16
 261 645 261 645 224 620.5 c 128,-1,17
 187 596 187 596 171 553.5 c 128,-1,18
 155 511 155 511 155 457 c 0,19,20
 155 407 155 407 188.5 342.5 c 128,-1,21
 222 278 222 278 300 206 c 128,-1,22
 378 134 378 134 512 58 c 1,23,-1
 460 -18 l 1,0,1
EndSplineSet
EndChar

StartChar: u104C7
Encoding: 66759 66759 33
Width: 768
GlyphClass: 2
Flags: W
AnchorPoint: "Anchor-0" 300 800 basechar 0
LayerCount: 2
Fore
SplineSet
657 -229 m 1,0,1
 623 -204 623 -204 608 -162 c 128,-1,2
 593 -120 593 -120 593 -65 c 0,3,4
 593 -19 593 -19 600.5 20.5 c 128,-1,5
 608 60 608 60 615 101.5 c 128,-1,6
 622 143 622 143 622 194 c 0,7,8
 622 286 622 286 559.5 335 c 128,-1,9
 497 384 497 384 389 384 c 0,10,11
 380 384 380 384 372 384 c 128,-1,12
 364 384 364 384 356 383 c 1,13,14
 433 351 433 351 474 309 c 128,-1,15
 515 267 515 267 515 191 c 0,16,17
 515 127 515 127 484.5 82.5 c 128,-1,18
 454 38 454 38 399 14 c 128,-1,19
 344 -10 344 -10 272 -10 c 0,20,21
 238 -10 238 -10 199 -0.5 c 128,-1,22
 160 9 160 9 126.5 32.5 c 128,-1,23
 93 56 93 56 71.5 97 c 128,-1,24
 50 138 50 138 50 202 c 0,25,26
 50 260 50 260 74.5 307 c 128,-1,27
 99 354 99 354 143 388 c 1,28,29
 108 416 108 416 90.5 453 c 128,-1,30
 73 490 73 490 73 542 c 0,31,32
 73 599 73 599 102 639.5 c 128,-1,33
 131 680 131 680 182.5 702 c 128,-1,34
 234 724 234 724 301 724 c 0,35,36
 360 724 360 724 409 713 c 128,-1,37
 458 702 458 702 498 684 c 1,38,-1
 470 607 l 1,39,40
 433 623 433 623 389.5 634 c 128,-1,41
 346 645 346 645 299 645 c 0,42,43
 232 645 232 645 198 616.5 c 128,-1,44
 164 588 164 588 164 541 c 0,45,46
 164 504 164 504 179.5 479.5 c 128,-1,47
 195 455 195 455 232 435 c 1,48,49
 269 448 269 448 311.5 455 c 128,-1,50
 354 462 354 462 403 462 c 0,51,52
 498 462 498 462 568.5 429.5 c 128,-1,53
 639 397 639 397 678 337.5 c 128,-1,54
 717 278 717 278 717 197 c 0,55,56
 717 150 717 150 710 106 c 128,-1,57
 703 62 703 62 695.5 22.5 c 128,-1,58
 688 -17 688 -17 688 -53 c 0,59,60
 688 -90 688 -90 696 -120.5 c 128,-1,61
 704 -151 704 -151 728 -173 c 1,62,-1
 657 -229 l 1,0,1
275 68 m 0,63,64
 346 68 346 68 385.5 99 c 128,-1,65
 425 130 425 130 425 183 c 0,66,67
 425 225 425 225 404.5 249.5 c 128,-1,68
 384 274 384 274 346.5 292 c 128,-1,69
 309 310 309 310 257 330 c 0,70,71
 247 334 247 334 240.5 335.5 c 128,-1,72
 234 337 234 337 221 343 c 1,73,74
 184 320 184 320 162.5 284.5 c 128,-1,75
 141 249 141 249 141 202 c 0,76,77
 141 142 141 142 175.5 105 c 128,-1,78
 210 68 210 68 275 68 c 0,63,64
EndSplineSet
EndChar

StartChar: u104C8
Encoding: 66760 66760 34
Width: 790
GlyphClass: 2
Flags: W
AnchorPoint: "Anchor-0" 355 800 basechar 0
LayerCount: 2
Fore
SplineSet
151 0 m 1,0,-1
 257 635 l 1,1,-1
 30 635 l 1,2,-1
 30 714 l 1,3,-1
 393 714 l 2,4,5
 493 714 493 714 568.5 674 c 128,-1,6
 644 634 644 634 686.5 556.5 c 128,-1,7
 729 479 729 479 729 364 c 0,8,9
 729 183 729 183 630.5 91.5 c 128,-1,10
 532 0 532 0 356 0 c 2,11,-1
 151 0 l 1,0,-1
257 77 m 1,12,-1
 344 77 l 2,13,14
 634 77 634 77 634 361 c 0,15,16
 634 504 634 504 566 569.5 c 128,-1,17
 498 635 498 635 382 635 c 2,18,-1
 350 635 l 1,19,-1
 257 77 l 1,12,-1
EndSplineSet
EndChar

StartChar: u104C9
Encoding: 66761 66761 35
Width: 790
GlyphClass: 2
Flags: W
AnchorPoint: "Anchor-0" 355 800 basechar 0
LayerCount: 2
Fore
SplineSet
151 0 m 1,0,-1
 204 320 l 1,1,-1
 123 320 l 1,2,-1
 123 396 l 1,3,-1
 217 396 l 1,4,-1
 257 635 l 1,5,-1
 30 635 l 1,6,-1
 30 714 l 1,7,-1
 393 714 l 2,8,9
 493 714 493 714 568.5 674 c 128,-1,10
 644 634 644 634 686.5 556.5 c 128,-1,11
 729 479 729 479 729 364 c 0,12,13
 729 183 729 183 630.5 91.5 c 128,-1,14
 532 0 532 0 356 0 c 2,15,-1
 151 0 l 1,0,-1
257 77 m 1,16,-1
 344 77 l 2,17,18
 634 77 634 77 634 361 c 0,19,20
 634 504 634 504 566 569.5 c 128,-1,21
 498 635 498 635 382 635 c 2,22,-1
 350 635 l 1,23,-1
 310 396 l 1,24,-1
 390 396 l 1,25,-1
 390 320 l 1,26,-1
 298 320 l 1,27,-1
 257 77 l 1,16,-1
EndSplineSet
EndChar

StartChar: u104CA
Encoding: 66762 66762 36
Width: 716
GlyphClass: 2
Flags: W
AnchorPoint: "Anchor-0" 385 800 basechar 0
LayerCount: 2
Fore
SplineSet
256 -182 m 0,0,1
 189 -182 189 -182 135.5 -157.5 c 128,-1,2
 82 -133 82 -133 51 -89.5 c 128,-1,3
 20 -46 20 -46 20 11 c 0,4,5
 20 75 20 75 44 117.5 c 128,-1,6
 68 160 68 160 111.5 187 c 128,-1,7
 155 214 155 214 215 232 c 1,8,-1
 304 635 l 1,9,-1
 97 635 l 1,10,-1
 97 714 l 1,11,-1
 390 714 l 2,12,13
 486 714 486 714 544.5 678 c 128,-1,14
 603 642 603 642 629.5 585 c 128,-1,15
 656 528 656 528 656 464 c 0,16,17
 656 382 656 382 623 325.5 c 128,-1,18
 590 269 590 269 519 232.5 c 128,-1,19
 448 196 448 196 333 175 c 0,20,21
 223 155 223 155 168 119 c 128,-1,22
 113 83 113 83 113 12 c 0,23,24
 113 -34 113 -34 151 -68.5 c 128,-1,25
 189 -103 189 -103 262 -103 c 0,26,27
 306 -103 306 -103 347.5 -92.5 c 128,-1,28
 389 -82 389 -82 425 -66 c 128,-1,29
 461 -50 461 -50 487 -36 c 1,30,-1
 515 -113 l 1,31,32
 487 -129 487 -129 446.5 -145 c 128,-1,33
 406 -161 406 -161 357 -171.5 c 128,-1,34
 308 -182 308 -182 256 -182 c 0,0,1
313 257 m 1,35,-1
 319 258 l 2,36,37
 391 273 391 273 446 293 c 128,-1,38
 501 313 501 313 532 351.5 c 128,-1,39
 563 390 563 390 563 459 c 0,40,41
 563 481 563 481 558 507.5 c 128,-1,42
 553 534 553 534 536 560 c 128,-1,43
 519 586 519 586 485.5 605 c 128,-1,44
 452 624 452 624 395 631 c 1,45,-1
 313 257 l 1,35,-1
EndSplineSet
EndChar

StartChar: u104CB
Encoding: 66763 66763 37
Width: 716
GlyphClass: 2
Flags: W
AnchorPoint: "Anchor-0" 385 800 basechar 0
LayerCount: 2
Fore
SplineSet
256 -182 m 0,0,1
 189 -182 189 -182 135.5 -157.5 c 128,-1,2
 82 -133 82 -133 51 -89.5 c 128,-1,3
 20 -46 20 -46 20 11 c 0,4,5
 20 75 20 75 44 117.5 c 128,-1,6
 68 160 68 160 111.5 187 c 128,-1,7
 155 214 155 214 215 232 c 1,8,-1
 257 422 l 1,9,-1
 179 422 l 1,10,-1
 179 498 l 1,11,-1
 274 498 l 1,12,-1
 304 635 l 1,13,-1
 97 635 l 1,14,-1
 97 714 l 1,15,-1
 390 714 l 2,16,17
 486 714 486 714 544.5 678 c 128,-1,18
 603 642 603 642 629.5 585 c 128,-1,19
 656 528 656 528 656 464 c 0,20,21
 656 382 656 382 623 325.5 c 128,-1,22
 590 269 590 269 519 232.5 c 128,-1,23
 448 196 448 196 333 175 c 0,24,25
 223 155 223 155 168 119 c 128,-1,26
 113 83 113 83 113 12 c 0,27,28
 113 -34 113 -34 151 -68.5 c 128,-1,29
 189 -103 189 -103 262 -103 c 0,30,31
 306 -103 306 -103 347.5 -92.5 c 128,-1,32
 389 -82 389 -82 425 -66 c 128,-1,33
 461 -50 461 -50 487 -36 c 1,34,-1
 515 -113 l 1,35,36
 487 -129 487 -129 446.5 -145 c 128,-1,37
 406 -161 406 -161 357 -171.5 c 128,-1,38
 308 -182 308 -182 256 -182 c 0,0,1
313 257 m 1,39,-1
 319 258 l 2,40,41
 391 273 391 273 446 293 c 128,-1,42
 501 313 501 313 532 351.5 c 128,-1,43
 563 390 563 390 563 459 c 0,44,45
 563 481 563 481 558 507.5 c 128,-1,46
 553 534 553 534 536 560 c 128,-1,47
 519 586 519 586 485.5 605 c 128,-1,48
 452 624 452 624 395 631 c 1,49,-1
 366 498 l 1,50,-1
 446 498 l 1,51,-1
 446 422 l 1,52,-1
 349 422 l 1,53,-1
 313 257 l 1,39,-1
EndSplineSet
EndChar

StartChar: u104CC
Encoding: 66764 66764 38
Width: 716
GlyphClass: 2
Flags: W
AnchorPoint: "Anchor-0" 385 800 basechar 0
LayerCount: 2
Fore
SplineSet
-53 -13 m 1,0,-1
 -53 63 l 1,1,-1
 25 63 l 1,2,3
 38 132 38 132 88 170.5 c 128,-1,4
 138 209 138 209 215 232 c 1,5,-1
 304 635 l 1,6,-1
 97 635 l 1,7,-1
 97 714 l 1,8,-1
 390 714 l 2,9,10
 486 714 486 714 544.5 678 c 128,-1,11
 603 642 603 642 629.5 585 c 128,-1,12
 656 528 656 528 656 464 c 0,13,14
 656 382 656 382 623 325.5 c 128,-1,15
 590 269 590 269 519 232.5 c 128,-1,16
 448 196 448 196 333 175 c 0,17,18
 245 159 245 159 192.5 133.5 c 128,-1,19
 140 108 140 108 122 63 c 1,20,-1
 214 63 l 1,21,-1
 214 -13 l 1,22,-1
 116 -13 l 1,23,24
 125 -51 125 -51 162 -77 c 128,-1,25
 199 -103 199 -103 262 -103 c 0,26,27
 306 -103 306 -103 347.5 -92.5 c 128,-1,28
 389 -82 389 -82 425 -66 c 128,-1,29
 461 -50 461 -50 487 -36 c 1,30,-1
 515 -113 l 1,31,32
 487 -129 487 -129 446.5 -145 c 128,-1,33
 406 -161 406 -161 357 -171.5 c 128,-1,34
 308 -182 308 -182 256 -182 c 0,35,36
 193 -182 193 -182 142.5 -160.5 c 128,-1,37
 92 -139 92 -139 60 -101 c 128,-1,38
 28 -63 28 -63 22 -13 c 1,39,-1
 -53 -13 l 1,0,-1
313 257 m 1,40,-1
 319 258 l 2,41,42
 391 273 391 273 446 293 c 128,-1,43
 501 313 501 313 532 351.5 c 128,-1,44
 563 390 563 390 563 459 c 0,45,46
 563 481 563 481 558 507.5 c 128,-1,47
 553 534 553 534 536 560 c 128,-1,48
 519 586 519 586 485.5 605 c 128,-1,49
 452 624 452 624 395 631 c 1,50,-1
 313 257 l 1,40,-1
EndSplineSet
EndChar

StartChar: u104CD
Encoding: 66765 66765 39
Width: 737
GlyphClass: 2
Flags: W
AnchorPoint: "Anchor-0" 255 800 basechar 0
LayerCount: 2
Fore
SplineSet
606 -229 m 1,0,1
 572 -204 572 -204 557 -162 c 128,-1,2
 542 -120 542 -120 542 -65 c 0,3,4
 542 -19 542 -19 549.5 20.5 c 128,-1,5
 557 60 557 60 564 101.5 c 128,-1,6
 571 143 571 143 571 194 c 0,7,8
 571 247 571 247 559.5 287.5 c 128,-1,9
 548 328 548 328 518.5 351 c 128,-1,10
 489 374 489 374 435 374 c 0,11,12
 395 374 395 374 365 356.5 c 128,-1,13
 335 339 335 339 315.5 312.5 c 128,-1,14
 296 286 296 286 285 258 c 1,15,-1
 285 0 l 1,16,-1
 195 0 l 1,17,-1
 195 634 l 1,18,-1
 30 634 l 1,19,-1
 30 714 l 1,20,-1
 530 714 l 1,21,-1
 530 634 l 1,22,-1
 285 634 l 1,23,-1
 285 389 l 1,24,25
 311 416 311 416 348 434 c 128,-1,26
 385 452 385 452 436 452 c 0,27,28
 519 452 519 452 569.5 419 c 128,-1,29
 620 386 620 386 643 328.5 c 128,-1,30
 666 271 666 271 666 197 c 0,31,32
 666 150 666 150 659 106 c 128,-1,33
 652 62 652 62 644.5 22.5 c 128,-1,34
 637 -17 637 -17 637 -53 c 0,35,36
 637 -90 637 -90 645 -120.5 c 128,-1,37
 653 -151 653 -151 677 -173 c 1,38,-1
 606 -229 l 1,0,1
EndSplineSet
EndChar

StartChar: u104CE
Encoding: 66766 66766 40
Width: 731
GlyphClass: 2
Flags: W
AnchorPoint: "Anchor-0" 355 800 basechar 0
LayerCount: 2
Fore
SplineSet
362 -10 m 0,0,1
 229 -10 229 -10 159.5 62.5 c 128,-1,2
 90 135 90 135 90 254 c 2,3,-1
 90 714 l 1,4,-1
 180 714 l 1,5,-1
 180 251 l 2,6,7
 180 164 180 164 226.5 116 c 128,-1,8
 273 68 273 68 367 68 c 0,9,10
 464 68 464 68 507.5 119.5 c 128,-1,11
 551 171 551 171 551 252 c 2,12,-1
 551 714 l 1,13,-1
 640 714 l 1,14,-1
 640 252 l 2,15,16
 640 178 640 178 610 118.5 c 128,-1,17
 580 59 580 59 518.5 24.5 c 128,-1,18
 457 -10 457 -10 362 -10 c 0,0,1
EndSplineSet
EndChar

StartChar: u104CF
Encoding: 66767 66767 41
Width: 508
GlyphClass: 2
Flags: W
AnchorPoint: "Anchor-0" 240 800 basechar 0
LayerCount: 2
Fore
SplineSet
243 0 m 1,0,-1
 321 353 l 1,1,-1
 78 353 l 1,2,-1
 157 714 l 1,3,-1
 250 714 l 1,4,-1
 187 432 l 1,5,-1
 430 432 l 1,6,-1
 336 0 l 1,7,-1
 243 0 l 1,0,-1
EndSplineSet
EndChar

StartChar: u104D0
Encoding: 66768 66768 42
Width: 804
GlyphClass: 2
Flags: W
AnchorPoint: "Anchor-0" 405 800 basechar 0
LayerCount: 2
Fore
SplineSet
53 0 m 1,0,-1
 53 235 l 2,1,2
 53 286 53 286 67.5 333 c 128,-1,3
 82 380 82 380 116 417 c 128,-1,4
 150 454 150 454 209.5 475.5 c 128,-1,5
 269 497 269 497 359 497 c 1,6,-1
 359 714 l 1,7,-1
 447 714 l 1,8,-1
 447 497 l 1,9,10
 537 497 537 497 596.5 475 c 128,-1,11
 656 453 656 453 689.5 416 c 128,-1,12
 723 379 723 379 737 332.5 c 128,-1,13
 751 286 751 286 751 236 c 2,14,-1
 751 0 l 1,15,-1
 661 0 l 1,16,-1
 661 234 l 2,17,18
 661 327 661 327 610 373.5 c 128,-1,19
 559 420 559 420 447 420 c 1,20,-1
 447 0 l 1,21,-1
 359 0 l 1,22,-1
 359 420 l 1,23,24
 245 420 245 420 195 373.5 c 128,-1,25
 145 327 145 327 145 236 c 2,26,-1
 145 0 l 1,27,-1
 53 0 l 1,0,-1
EndSplineSet
EndChar

StartChar: u104D1
Encoding: 66769 66769 43
Width: 804
GlyphClass: 2
Flags: W
AnchorPoint: "Anchor-0" 405 800 basechar 0
LayerCount: 2
Fore
SplineSet
357 0 m 1,0,-1
 357 217 l 1,1,2
 267 217 267 217 207.5 239 c 128,-1,3
 148 261 148 261 114.5 298 c 128,-1,4
 81 335 81 335 67 382 c 128,-1,5
 53 429 53 429 53 478 c 2,6,-1
 53 714 l 1,7,-1
 143 714 l 1,8,-1
 143 480 l 2,9,10
 143 387 143 387 194 340.5 c 128,-1,11
 245 294 245 294 357 294 c 1,12,-1
 357 714 l 1,13,-1
 445 714 l 1,14,-1
 445 294 l 1,15,16
 559 294 559 294 609 340.5 c 128,-1,17
 659 387 659 387 659 478 c 2,18,-1
 659 714 l 1,19,-1
 751 714 l 1,20,-1
 751 479 l 2,21,22
 751 428 751 428 736.5 381 c 128,-1,23
 722 334 722 334 688 297 c 128,-1,24
 654 260 654 260 594.5 238.5 c 128,-1,25
 535 217 535 217 445 217 c 1,26,-1
 445 0 l 1,27,-1
 357 0 l 1,0,-1
EndSplineSet
EndChar

StartChar: u104D2
Encoding: 66770 66770 44
Width: 572
GlyphClass: 2
Flags: W
AnchorPoint: "Anchor-0" 285 800 basechar 0
LayerCount: 2
Fore
SplineSet
-9 0 m 1,0,-1
 414 634 l 1,1,-1
 50 634 l 1,2,-1
 50 714 l 1,3,-1
 523 714 l 1,4,-1
 523 646 l 1,5,-1
 93 0 l 1,6,-1
 -9 0 l 1,0,-1
EndSplineSet
EndChar

StartChar: u104D3
Encoding: 66771 66771 45
Width: 681
GlyphClass: 2
Flags: W
AnchorPoint: "Anchor-0" 300 800 basechar 0
LayerCount: 2
Fore
SplineSet
590 -229 m 1,0,1
 556 -204 556 -204 541 -164.5 c 128,-1,2
 526 -125 526 -125 526 -83 c 0,3,4
 526 -51 526 -51 529 -30 c 128,-1,5
 532 -9 532 -9 532 10 c 0,6,7
 532 73 532 73 485.5 112.5 c 128,-1,8
 439 152 439 152 353 152 c 0,9,10
 284 152 284 152 235 129.5 c 128,-1,11
 186 107 186 107 155 68 c 1,12,-1
 116 0 l 1,13,-1
 30 0 l 1,14,-1
 30 32 l 1,15,-1
 429 634 l 1,16,-1
 65 634 l 1,17,-1
 65 714 l 1,18,-1
 538 714 l 1,19,-1
 538 646 l 1,20,-1
 252 215 l 1,21,22
 275 223 275 223 303.5 227 c 128,-1,23
 332 231 332 231 366 231 c 0,24,25
 433 231 433 231 492.5 207 c 128,-1,26
 552 183 552 183 589.5 134 c 128,-1,27
 627 85 627 85 627 11 c 0,28,29
 627 -5 627 -5 624 -23.5 c 128,-1,30
 621 -42 621 -42 621 -74 c 0,31,32
 621 -93 621 -93 629 -122 c 128,-1,33
 637 -151 637 -151 661 -173 c 1,34,-1
 590 -229 l 1,0,1
EndSplineSet
EndChar

StartChar: u104D8
Encoding: 66776 66776 46
Width: 508
GlyphClass: 2
Flags: W
AnchorPoint: "Anchor-1" 420 420 basechar 0
AnchorPoint: "Anchor-0" 255 600 basechar 0
LayerCount: 2
Fore
SplineSet
0 0 m 1,0,-1
 204 536 l 1,1,-1
 305 536 l 1,2,-1
 508 0 l 1,3,-1
 414 0 l 1,4,-1
 300 316 l 2,5,6
 292 338 292 338 283 365 c 128,-1,7
 274 392 274 392 267 417 c 128,-1,8
 260 442 260 442 257 458 c 1,9,-1
 253 458 l 1,10,11
 250 442 250 442 242 416.5 c 128,-1,12
 234 391 234 391 225 364.5 c 128,-1,13
 216 338 216 338 208 316 c 2,14,-1
 94 0 l 1,15,-1
 0 0 l 1,0,-1
EndSplineSet
EndChar

StartChar: u104D9
Encoding: 66777 66777 47
Width: 508
GlyphClass: 2
Flags: W
AnchorPoint: "Anchor-1" 420 420 basechar 0
AnchorPoint: "Anchor-0" 255 600 basechar 0
LayerCount: 2
Fore
SplineSet
0 0 m 1,0,-1
 204 536 l 1,1,-1
 305 536 l 1,2,-1
 508 0 l 1,3,-1
 414 0 l 1,4,-1
 300 316 l 2,5,6
 292 338 292 338 283 365 c 128,-1,7
 274 392 274 392 267 417 c 128,-1,8
 260 442 260 442 257 458 c 1,9,-1
 253 458 l 1,10,11
 250 442 250 442 242 416.5 c 128,-1,12
 234 391 234 391 225 364.5 c 128,-1,13
 216 338 216 338 208 316 c 2,14,-1
 94 0 l 1,15,-1
 0 0 l 1,0,-1
216 0 m 1,16,-1
 216 184 l 1,17,-1
 292 184 l 1,18,-1
 292 0 l 1,19,-1
 216 0 l 1,16,-1
EndSplineSet
EndChar

StartChar: u104DB
Encoding: 66779 66779 49
Width: 491
GlyphClass: 2
Flags: W
AnchorPoint: "Anchor-1" 330 520 basechar 0
AnchorPoint: "Anchor-0" 180 700 basechar 0
LayerCount: 2
Fore
SplineSet
10 0 m 1,0,-1
 219 406 l 1,1,-1
 120 640 l 1,2,-1
 209 640 l 1,3,-1
 481 0 l 1,4,-1
 392 0 l 1,5,-1
 258 314 l 1,6,-1
 99 0 l 1,7,-1
 10 0 l 1,0,-1
EndSplineSet
EndChar

StartChar: u104DC
Encoding: 66780 66780 50
Width: 500
GlyphClass: 2
Flags: W
AnchorPoint: "Anchor-0" 245 600 basechar 0
LayerCount: 2
Fore
SplineSet
415 -120 m 1,0,-1
 292 105 l 1,1,2
 246 105 246 105 219 119 c 128,-1,3
 192 133 192 133 175 154 c 1,4,-1
 171 154 l 1,5,6
 172 142 172 142 172.5 126.5 c 128,-1,7
 173 111 173 111 173 98 c 2,8,-1
 173 0 l 1,9,-1
 85 0 l 1,10,-1
 85 536 l 1,11,-1
 173 536 l 1,12,-1
 173 494 l 2,13,14
 173 477 173 477 172.5 461.5 c 128,-1,15
 172 446 172 446 171 429 c 1,16,-1
 174 429 l 1,17,18
 185 449 185 449 214.5 465.5 c 128,-1,19
 244 482 244 482 289 482 c 0,20,21
 358 482 358 482 400 435 c 128,-1,22
 442 388 442 388 442 294 c 0,23,24
 442 233 442 233 424 191.5 c 128,-1,25
 406 150 406 150 374 128 c 1,26,-1
 517 -120 l 1,27,-1
 415 -120 l 1,0,-1
269 180 m 0,28,29
 310 180 310 180 330.5 212.5 c 128,-1,30
 351 245 351 245 351 294 c 0,31,32
 351 344 351 344 331.5 376.5 c 128,-1,33
 312 409 312 409 271 409 c 0,34,35
 225 409 225 409 199 377.5 c 128,-1,36
 173 346 173 346 173 308 c 2,37,-1
 173 278 l 2,38,39
 173 239 173 239 197 209.5 c 128,-1,40
 221 180 221 180 269 180 c 0,28,29
EndSplineSet
EndChar

StartChar: u104DD
Encoding: 66781 66781 51
Width: 570
GlyphClass: 2
Flags: W
AnchorPoint: "Anchor-0" 300 600 basechar 0
LayerCount: 2
Fore
SplineSet
300 0 m 2,0,1
 229 0 229 0 173.5 26.5 c 128,-1,2
 118 53 118 53 86.5 111.5 c 128,-1,3
 55 170 55 170 55 265 c 0,4,5
 55 364 55 364 89.5 426 c 128,-1,6
 124 488 124 488 182.5 517 c 128,-1,7
 241 546 241 546 313 546 c 0,8,9
 369 546 369 546 414 534 c 128,-1,10
 459 522 459 522 483 510 c 1,11,-1
 452 441 l 1,12,13
 428 450 428 450 394.5 459.5 c 128,-1,14
 361 469 361 469 313 469 c 0,15,16
 226 469 226 469 186 418 c 128,-1,17
 146 367 146 367 146 266 c 0,18,19
 146 137 146 137 216 96 c 1,20,21
 214 111 214 111 212.5 126 c 128,-1,22
 211 141 211 141 211 154 c 0,23,24
 211 235 211 235 255.5 273 c 128,-1,25
 300 311 300 311 364 311 c 0,26,27
 406 311 406 311 441 294 c 128,-1,28
 476 277 476 277 496.5 243 c 128,-1,29
 517 209 517 209 517 157 c 0,30,31
 517 108 517 108 505.5 60.5 c 128,-1,32
 494 13 494 13 494 -38 c 0,33,34
 494 -66 494 -66 500 -90 c 128,-1,35
 506 -114 506 -114 525 -131 c 1,36,-1
 451 -174 l 1,37,38
 425 -155 425 -155 413.5 -123 c 128,-1,39
 402 -91 402 -91 402 -48 c 0,40,41
 402 -13 402 -13 409 17.5 c 128,-1,42
 416 48 416 48 422.5 79.5 c 128,-1,43
 429 111 429 111 429 150 c 0,44,45
 429 182 429 182 415.5 209.5 c 128,-1,46
 402 237 402 237 364 237 c 0,47,48
 327 237 327 237 313 212.5 c 128,-1,49
 299 188 299 188 299 150 c 0,50,51
 299 127 299 127 303.5 99 c 128,-1,52
 308 71 308 71 314 44.5 c 128,-1,53
 320 18 320 18 326 0 c 1,54,-1
 300 0 l 2,0,1
EndSplineSet
EndChar

StartChar: u104DE
Encoding: 66782 66782 52
Width: 570
GlyphClass: 2
Flags: W
AnchorPoint: "Anchor-0" 300 600 basechar 0
LayerCount: 2
Fore
SplineSet
300 0 m 2,0,1
 229 0 229 0 173.5 26.5 c 128,-1,2
 118 53 118 53 86.5 111.5 c 128,-1,3
 55 170 55 170 55 265 c 0,4,5
 55 364 55 364 89.5 426 c 128,-1,6
 124 488 124 488 182.5 517 c 128,-1,7
 241 546 241 546 313 546 c 0,8,9
 369 546 369 546 414 534 c 128,-1,10
 459 522 459 522 483 510 c 1,11,-1
 452 441 l 1,12,13
 428 450 428 450 394.5 459.5 c 128,-1,14
 361 469 361 469 313 469 c 0,15,16
 226 469 226 469 186 418 c 128,-1,17
 146 367 146 367 146 266 c 0,18,19
 146 137 146 137 216 96 c 1,20,21
 214 111 214 111 212.5 126 c 128,-1,22
 211 141 211 141 211 154 c 0,23,24
 211 235 211 235 255.5 273 c 128,-1,25
 300 311 300 311 364 311 c 0,26,27
 422 311 422 311 465.5 278.5 c 128,-1,28
 509 246 509 246 516 179 c 1,29,-1
 580 179 l 1,30,-1
 580 111 l 1,31,-1
 514 111 l 1,32,33
 509 74 509 74 501.5 37.5 c 128,-1,34
 494 1 494 1 494 -38 c 0,35,36
 494 -66 494 -66 500 -90 c 128,-1,37
 506 -114 506 -114 525 -131 c 1,38,-1
 451 -174 l 1,39,40
 425 -155 425 -155 413.5 -123 c 128,-1,41
 402 -91 402 -91 402 -48 c 256,42,43
 402 -5 402 -5 412 31.5 c 128,-1,44
 422 68 422 68 427 111 c 1,45,-1
 353 111 l 1,46,-1
 353 179 l 1,47,-1
 426 179 l 1,48,49
 422 203 422 203 407.5 220 c 128,-1,50
 393 237 393 237 364 237 c 0,51,52
 327 237 327 237 313 212.5 c 128,-1,53
 299 188 299 188 299 150 c 0,54,55
 299 127 299 127 303.5 99 c 128,-1,56
 308 71 308 71 314 44.5 c 128,-1,57
 320 18 320 18 326 0 c 1,58,-1
 300 0 l 2,0,1
EndSplineSet
EndChar

StartChar: u104DF
Encoding: 66783 66783 53
Width: 611
GlyphClass: 2
Flags: W
AnchorPoint: "Anchor-0" 270 600 basechar 0
LayerCount: 2
Fore
SplineSet
262 -13 m 0,0,1
 202 -13 202 -13 155.5 18 c 128,-1,2
 109 49 109 49 82 111.5 c 128,-1,3
 55 174 55 174 55 266 c 0,4,5
 55 359 55 359 82 421 c 128,-1,6
 109 483 109 483 155.5 514.5 c 128,-1,7
 202 546 202 546 262 546 c 0,8,9
 301 546 301 546 332.5 535 c 128,-1,10
 364 524 364 524 390.5 496 c 128,-1,11
 417 468 417 468 440 416 c 1,12,13
 444 445 444 445 446 476.5 c 128,-1,14
 448 508 448 508 448 542 c 1,15,-1
 531 536 l 1,16,17
 531 466 531 466 524.5 415 c 128,-1,18
 518 364 518 364 505 321 c 2,19,-1
 489 266 l 1,20,-1
 505 212 l 2,21,22
 518 169 518 169 524.5 118.5 c 128,-1,23
 531 68 531 68 531 -3 c 1,24,-1
 448 -9 l 1,25,26
 448 26 448 26 446 57 c 128,-1,27
 444 88 444 88 440 116 c 1,28,29
 417 64 417 64 390.5 36 c 128,-1,30
 364 8 364 8 332.5 -2.5 c 128,-1,31
 301 -13 301 -13 262 -13 c 0,0,1
260 61 m 0,32,33
 285 61 285 61 307.5 75.5 c 128,-1,34
 330 90 330 90 350.5 126 c 128,-1,35
 371 162 371 162 390 226 c 2,36,-1
 402 266 l 1,37,-1
 390 307 l 2,38,39
 371 371 371 371 350.5 407 c 128,-1,40
 330 443 330 443 307.5 457.5 c 128,-1,41
 285 472 285 472 260 472 c 0,42,43
 208 472 208 472 177 420 c 128,-1,44
 146 368 146 368 146 268 c 0,45,46
 146 165 146 165 177.5 113 c 128,-1,47
 209 61 209 61 260 61 c 0,32,33
EndSplineSet
EndChar

StartChar: u104E1
Encoding: 66785 66785 55
Width: 528
GlyphClass: 2
Flags: W
AnchorPoint: "Anchor-0" 280 600 basechar 0
LayerCount: 2
Fore
SplineSet
160 -9 m 0,0,1
 114 -9 114 -9 88 7.5 c 128,-1,2
 62 24 62 24 51 50 c 128,-1,3
 40 76 40 76 40 103 c 0,4,5
 40 128 40 128 53 165 c 128,-1,6
 66 202 66 202 91 233 c 1,7,-1
 164 194 l 1,8,9
 147 171 147 171 138.5 146.5 c 128,-1,10
 130 122 130 122 130 101 c 0,11,12
 130 90 130 90 136 79 c 128,-1,13
 142 68 142 68 163 68 c 0,14,15
 192 68 192 68 213 93.5 c 128,-1,16
 234 119 234 119 247 157 c 2,17,-1
 329 386 l 2,18,19
 344 429 344 429 364.5 465 c 128,-1,20
 385 501 385 501 416.5 523.5 c 128,-1,21
 448 546 448 546 496 546 c 0,22,23
 498 546 498 546 505.5 546 c 128,-1,24
 513 546 513 546 518 544 c 1,25,-1
 509 467 l 2,26,27
 506 467 506 467 504.5 467.5 c 128,-1,28
 503 468 503 468 495 468 c 0,29,30
 467 468 467 468 448.5 443 c 128,-1,31
 430 418 430 418 416 380 c 2,32,-1
 334 151 l 2,33,34
 319 108 319 108 297 71.5 c 128,-1,35
 275 35 275 35 242.5 13 c 128,-1,36
 210 -9 210 -9 160 -9 c 0,0,1
EndSplineSet
EndChar

StartChar: u104E2
Encoding: 66786 66786 56
Width: 565
GlyphClass: 2
Flags: W
AnchorPoint: "Anchor-0" 280 650 basechar 0
LayerCount: 2
Fore
SplineSet
160 -9 m 0,0,1
 114 -9 114 -9 88 7.5 c 128,-1,2
 62 24 62 24 51 50 c 128,-1,3
 40 76 40 76 40 103 c 0,4,5
 40 128 40 128 53 165 c 128,-1,6
 66 202 66 202 91 233 c 1,7,-1
 164 194 l 1,8,9
 147 171 147 171 138.5 146.5 c 128,-1,10
 130 122 130 122 130 101 c 0,11,12
 130 90 130 90 136 79 c 128,-1,13
 142 68 142 68 163 68 c 0,14,15
 192 68 192 68 213 93.5 c 128,-1,16
 234 119 234 119 247 157 c 2,17,-1
 329 386 l 2,18,19
 343 426 343 426 361.5 460 c 128,-1,20
 380 494 380 494 407.5 517 c 128,-1,21
 435 540 435 540 476 545 c 1,22,-1
 476 605 l 1,23,-1
 545 605 l 1,24,-1
 545 401 l 1,25,-1
 476 401 l 1,26,-1
 476 464 l 1,27,28
 456 457 456 457 441.5 434.5 c 128,-1,29
 427 412 427 412 416 380 c 2,30,-1
 334 151 l 2,31,32
 319 108 319 108 297 71.5 c 128,-1,33
 275 35 275 35 242.5 13 c 128,-1,34
 210 -9 210 -9 160 -9 c 0,0,1
EndSplineSet
EndChar

StartChar: u104E3
Encoding: 66787 66787 57
Width: 567
GlyphClass: 2
Flags: W
AnchorPoint: "Anchor-1" 560 420 basechar 0
AnchorPoint: "Anchor-0" 280 600 basechar 0
LayerCount: 2
Fore
SplineSet
90 0 m 1,0,-1
 61 200 l 2,1,2
 59 213 59 213 56.5 235.5 c 128,-1,3
 54 258 54 258 52 282 c 128,-1,4
 50 306 50 306 50 321 c 0,5,6
 50 430 50 430 105 488 c 128,-1,7
 160 546 160 546 284 546 c 0,8,9
 410 546 410 546 463.5 488 c 128,-1,10
 517 430 517 430 517 321 c 0,11,12
 517 306 517 306 515 282 c 128,-1,13
 513 258 513 258 510.5 235.5 c 128,-1,14
 508 213 508 213 506 200 c 2,15,-1
 477 0 l 1,16,-1
 389 0 l 1,17,-1
 418 197 l 2,18,19
 420 210 420 210 422.5 232.5 c 128,-1,20
 425 255 425 255 426.5 278.5 c 128,-1,21
 428 302 428 302 428 317 c 0,22,23
 428 359 428 359 416.5 394.5 c 128,-1,24
 405 430 405 430 373.5 452 c 128,-1,25
 342 474 342 474 283 474 c 0,26,27
 227 474 227 474 195.5 452 c 128,-1,28
 164 430 164 430 151.5 394.5 c 128,-1,29
 139 359 139 359 139 317 c 0,30,31
 139 302 139 302 140.5 278.5 c 128,-1,32
 142 255 142 255 144.5 232.5 c 128,-1,33
 147 210 147 210 149 197 c 2,34,-1
 178 0 l 1,35,-1
 90 0 l 1,0,-1
EndSplineSet
Position2: "Single Positioning lookup 0 subtable" dx=0 dy=0 dh=75 dv=0
EndChar

StartChar: u104E4
Encoding: 66788 66788 58
Width: 595
GlyphClass: 2
Flags: W
AnchorPoint: "Anchor-0" 300 800 basechar 0
LayerCount: 2
Fore
SplineSet
369 -240 m 0,0,1
 345 -240 345 -240 328 -236.5 c 128,-1,2
 311 -233 311 -233 298 -228 c 1,3,-1
 298 -157 l 1,4,5
 312 -161 312 -161 326 -164 c 128,-1,6
 340 -167 340 -167 358 -167 c 0,7,8
 387 -167 387 -167 406 -149.5 c 128,-1,9
 425 -132 425 -132 425 -83 c 2,10,-1
 425 134 l 2,11,12
 425 199 425 199 401.5 230.5 c 128,-1,13
 378 262 378 262 318 262 c 0,14,15
 239 262 239 262 206 215 c 128,-1,16
 173 168 173 168 173 90 c 2,17,-1
 173 0 l 1,18,-1
 85 0 l 1,19,-1
 85 760 l 1,20,-1
 172 760 l 1,21,-1
 172 374 l 2,22,23
 172 358 172 358 170.5 332 c 128,-1,24
 169 306 169 306 168 287 c 1,25,-1
 172 287 l 1,26,27
 181 299 181 299 197.5 321 c 128,-1,28
 214 343 214 343 236 365 c 2,29,-1
 407 536 l 1,30,-1
 520 536 l 1,31,-1
 314 335 l 1,32,33
 318 336 318 336 321.5 336 c 128,-1,34
 325 336 325 336 329 336 c 0,35,36
 428 336 428 336 470.5 289.5 c 128,-1,37
 513 243 513 243 513 140 c 2,38,-1
 513 -80 l 2,39,40
 513 -155 513 -155 478 -197.5 c 128,-1,41
 443 -240 443 -240 369 -240 c 0,0,1
EndSplineSet
EndChar

StartChar: u104E5
Encoding: 66789 66789 59
Width: 595
GlyphClass: 2
Flags: W
AnchorPoint: "Anchor-0" 300 800 basechar 0
LayerCount: 2
Fore
SplineSet
369 -240 m 0,0,1
 345 -240 345 -240 328 -236.5 c 128,-1,2
 311 -233 311 -233 298 -228 c 1,3,-1
 298 -157 l 1,4,5
 312 -161 312 -161 326 -164 c 128,-1,6
 340 -167 340 -167 358 -167 c 0,7,8
 387 -167 387 -167 406 -149.5 c 128,-1,9
 425 -132 425 -132 425 -83 c 2,10,-1
 425 134 l 2,11,12
 425 199 425 199 401.5 230.5 c 128,-1,13
 378 262 378 262 318 262 c 0,14,15
 239 262 239 262 206 215 c 128,-1,16
 173 168 173 168 173 90 c 2,17,-1
 173 0 l 1,18,-1
 85 0 l 1,19,-1
 85 575 l 1,20,-1
 23 575 l 1,21,-1
 23 643 l 1,22,-1
 85 643 l 1,23,-1
 85 760 l 1,24,-1
 172 760 l 1,25,-1
 172 643 l 1,26,-1
 250 643 l 1,27,-1
 250 575 l 1,28,-1
 172 575 l 1,29,-1
 172 374 l 2,30,31
 172 358 172 358 170.5 332 c 128,-1,32
 169 306 169 306 168 287 c 1,33,-1
 172 287 l 1,34,35
 181 299 181 299 197.5 321 c 128,-1,36
 214 343 214 343 236 365 c 2,37,-1
 407 536 l 1,38,-1
 520 536 l 1,39,-1
 314 335 l 1,40,41
 318 336 318 336 321.5 336 c 128,-1,42
 325 336 325 336 329 336 c 0,43,44
 428 336 428 336 470.5 289.5 c 128,-1,45
 513 243 513 243 513 140 c 2,46,-1
 513 -80 l 2,47,48
 513 -155 513 -155 478 -197.5 c 128,-1,49
 443 -240 443 -240 369 -240 c 0,0,1
EndSplineSet
EndChar

StartChar: u104E6
Encoding: 66790 66790 60
Width: 595
GlyphClass: 2
Flags: W
AnchorPoint: "Anchor-0" 300 800 basechar 0
LayerCount: 2
Fore
SplineSet
517 -239 m 1,0,1
 510 -221 510 -221 501 -201.5 c 128,-1,2
 492 -182 492 -182 485 -169 c 1,3,4
 468 -196 468 -196 435.5 -215 c 128,-1,5
 403 -234 403 -234 356 -234 c 0,6,7
 289 -234 289 -234 249.5 -206 c 128,-1,8
 210 -178 210 -178 210 -127 c 0,9,10
 210 -83 210 -83 246 -52.5 c 128,-1,11
 282 -22 282 -22 352 -22 c 0,12,13
 371 -22 371 -22 390.5 -24.5 c 128,-1,14
 410 -27 410 -27 425 -33 c 1,15,-1
 425 134 l 2,16,17
 425 199 425 199 401.5 230.5 c 128,-1,18
 378 262 378 262 318 262 c 0,19,20
 239 262 239 262 206 215 c 128,-1,21
 173 168 173 168 173 90 c 2,22,-1
 173 0 l 1,23,-1
 85 0 l 1,24,-1
 85 760 l 1,25,-1
 172 760 l 1,26,-1
 172 374 l 2,27,28
 172 358 172 358 170.5 332 c 128,-1,29
 169 306 169 306 168 287 c 1,30,-1
 172 287 l 1,31,32
 181 299 181 299 197.5 321 c 128,-1,33
 214 343 214 343 236 365 c 2,34,-1
 407 536 l 1,35,-1
 520 536 l 1,36,-1
 314 335 l 1,37,38
 318 336 318 336 321.5 336 c 128,-1,39
 325 336 325 336 329 336 c 0,40,41
 428 336 428 336 470.5 289.5 c 128,-1,42
 513 243 513 243 513 140 c 2,43,-1
 513 -88 l 1,44,45
 550 -134 550 -134 581 -211 c 1,46,-1
 517 -239 l 1,0,1
357 -171 m 0,47,48
 391 -171 391 -171 407.5 -149.5 c 128,-1,49
 424 -128 424 -128 425 -106 c 1,50,51
 411 -95 411 -95 392.5 -89.5 c 128,-1,52
 374 -84 374 -84 359 -84 c 0,53,54
 325 -84 325 -84 306.5 -96 c 128,-1,55
 288 -108 288 -108 288 -128 c 0,56,57
 288 -147 288 -147 306.5 -159 c 128,-1,58
 325 -171 325 -171 357 -171 c 0,47,48
EndSplineSet
EndChar

StartChar: u104E7
Encoding: 66791 66791 61
Width: 542
GlyphClass: 2
Flags: W
AnchorPoint: "Anchor-0" 230 600 basechar 0
LayerCount: 2
Fore
SplineSet
280 -10 m 0,0,1
 177 -10 177 -10 116 44 c 128,-1,2
 55 98 55 98 55 213 c 0,3,4
 55 295 55 295 93 380 c 128,-1,5
 131 465 131 465 192 535 c 1,6,-1
 302 535 l 1,7,8
 263 497 263 497 227 442.5 c 128,-1,9
 191 388 191 388 168.5 328.5 c 128,-1,10
 146 269 146 269 146 215 c 0,11,12
 146 176 146 176 157.5 141.5 c 128,-1,13
 169 107 169 107 199 85 c 128,-1,14
 229 63 229 63 282 63 c 0,15,16
 388 63 388 63 424 150 c 1,17,-1
 512 150 l 1,18,19
 487 73 487 73 426.5 31.5 c 128,-1,20
 366 -10 366 -10 280 -10 c 0,0,1
EndSplineSet
EndChar

StartChar: u104E8
Encoding: 66792 66792 62
Width: 788
GlyphClass: 2
Flags: W
AnchorPoint: "Anchor-0" 430 600 basechar 0
LayerCount: 2
Fore
SplineSet
85 0 m 1,0,-1
 85 284 l 2,1,2
 85 349 85 349 108.5 398 c 128,-1,3
 132 447 132 447 170 480.5 c 128,-1,4
 208 514 208 514 253.5 530.5 c 128,-1,5
 299 547 299 547 343 547 c 0,6,7
 401 547 401 547 449 529 c 1,8,9
 505 547 505 547 571 547 c 0,10,11
 623 547 623 547 676.5 539 c 128,-1,12
 730 531 730 531 768 511 c 1,13,-1
 745 437 l 1,14,15
 714 451 714 451 665.5 460.5 c 128,-1,16
 617 470 617 470 572 470 c 0,17,18
 565 470 565 470 558 469.5 c 128,-1,19
 551 469 551 469 543 469 c 1,20,21
 574 436 574 436 591.5 389 c 128,-1,22
 609 342 609 342 609 282 c 0,23,24
 609 204 609 204 583.5 158 c 128,-1,25
 558 112 558 112 517.5 91.5 c 128,-1,26
 477 71 477 71 433 71 c 0,27,28
 390 71 390 71 349.5 91.5 c 128,-1,29
 309 112 309 112 283.5 158 c 128,-1,30
 258 204 258 204 258 282 c 0,31,32
 258 343 258 343 280 390 c 128,-1,33
 302 437 302 437 339 470 c 1,34,35
 298 470 298 470 260 451 c 128,-1,36
 222 432 222 432 198 386 c 128,-1,37
 174 340 174 340 174 259 c 2,38,-1
 174 0 l 1,39,-1
 85 0 l 1,0,-1
436 145 m 0,40,41
 470 145 470 145 493.5 175.5 c 128,-1,42
 517 206 517 206 517 278 c 0,43,44
 517 343 517 343 497.5 383.5 c 128,-1,45
 478 424 478 424 445 444 c 1,46,47
 400 422 400 422 374.5 381 c 128,-1,48
 349 340 349 340 349 278 c 0,49,50
 349 204 349 204 374 174.5 c 128,-1,51
 399 145 399 145 436 145 c 0,40,41
EndSplineSet
EndChar

StartChar: u104E9
Encoding: 66793 66793 63
Width: 628
GlyphClass: 2
Flags: W
AnchorPoint: "Anchor-0" 255 600 basechar 0
LayerCount: 2
Fore
SplineSet
379 -10 m 0,0,1
 297 -10 297 -10 233.5 33 c 128,-1,2
 170 76 170 76 144 157 c 1,3,-1
 77 0 l 1,4,-1
 -15 0 l 1,5,-1
 215 536 l 1,6,-1
 307 536 l 1,7,-1
 229 355 l 2,8,9
 222 340 222 340 219 311.5 c 128,-1,10
 216 283 216 283 216 264 c 0,11,12
 216 207 216 207 235 161.5 c 128,-1,13
 254 116 254 116 291 89.5 c 128,-1,14
 328 63 328 63 381 63 c 0,15,16
 440 63 440 63 475.5 92.5 c 128,-1,17
 511 122 511 122 526 174 c 1,18,-1
 618 174 l 1,19,20
 596 86 596 86 533.5 38 c 128,-1,21
 471 -10 471 -10 379 -10 c 0,0,1
EndSplineSet
EndChar

StartChar: u104EA
Encoding: 66794 66794 64
Width: 605
GlyphClass: 2
Flags: W
AnchorPoint: "Anchor-1" 580 420 basechar 0
AnchorPoint: "Anchor-0" 300 600 basechar 0
LayerCount: 2
Fore
SplineSet
301 -10 m 0,0,1
 230 -10 230 -10 174.5 22.5 c 128,-1,2
 119 55 119 55 87 117.5 c 128,-1,3
 55 180 55 180 55 269 c 0,4,5
 55 402 55 402 122 474 c 128,-1,6
 189 546 189 546 304 546 c 0,7,8
 377 546 377 546 432.5 513.5 c 128,-1,9
 488 481 488 481 519.5 419.5 c 128,-1,10
 551 358 551 358 551 269 c 0,11,12
 551 136 551 136 483.5 63 c 128,-1,13
 416 -10 416 -10 301 -10 c 0,0,1
303 63 m 0,14,15
 384 63 384 63 422 118.5 c 128,-1,16
 460 174 460 174 460 269 c 256,17,18
 460 364 460 364 422 418 c 128,-1,19
 384 472 384 472 302 472 c 256,20,21
 220 472 220 472 183 418 c 128,-1,22
 146 364 146 364 146 269 c 256,23,24
 146 174 146 174 183.5 118.5 c 128,-1,25
 221 63 221 63 303 63 c 0,14,15
EndSplineSet
Position2: "Single Positioning lookup 0 subtable" dx=0 dy=0 dh=60 dv=0
EndChar

StartChar: u104EC
Encoding: 66796 66796 66
Width: 497
GlyphClass: 2
Flags: W
AnchorPoint: "Anchor-0" 255 600 basechar 0
LayerCount: 2
Fore
SplineSet
85 -120 m 1,0,-1
 85 536 l 1,1,-1
 173 536 l 1,2,-1
 173 424 l 2,3,4
 173 407 173 407 172.5 391.5 c 128,-1,5
 172 376 172 376 171 359 c 1,6,-1
 174 359 l 1,7,8
 185 379 185 379 214.5 395.5 c 128,-1,9
 244 412 244 412 289 412 c 0,10,11
 358 412 358 412 400 365 c 128,-1,12
 442 318 442 318 442 224 c 0,13,14
 442 131 442 131 400 83 c 128,-1,15
 358 35 358 35 289 35 c 0,16,17
 246 35 246 35 219 49 c 128,-1,18
 192 63 192 63 175 84 c 1,19,-1
 171 84 l 1,20,21
 172 72 172 72 172.5 56.5 c 128,-1,22
 173 41 173 41 173 28 c 2,23,-1
 173 -120 l 1,24,-1
 85 -120 l 1,0,-1
269 110 m 0,25,26
 310 110 310 110 330.5 142.5 c 128,-1,27
 351 175 351 175 351 224 c 0,28,29
 351 274 351 274 331.5 306.5 c 128,-1,30
 312 339 312 339 271 339 c 0,31,32
 225 339 225 339 199 307.5 c 128,-1,33
 173 276 173 276 173 238 c 2,34,-1
 173 208 l 2,35,36
 173 169 173 169 197 139.5 c 128,-1,37
 221 110 221 110 269 110 c 0,25,26
EndSplineSet
EndChar

StartChar: u104ED
Encoding: 66797 66797 67
Width: 497
GlyphClass: 2
Flags: W
AnchorPoint: "Anchor-0" 255 600 basechar 0
LayerCount: 2
Fore
SplineSet
85 -120 m 1,0,-1
 85 191 l 1,1,-1
 20 191 l 1,2,-1
 20 259 l 1,3,-1
 85 259 l 1,4,-1
 85 536 l 1,5,-1
 173 536 l 1,6,-1
 173 424 l 2,7,8
 173 407 173 407 172.5 391.5 c 128,-1,9
 172 376 172 376 171 359 c 1,10,-1
 174 359 l 1,11,12
 185 379 185 379 214.5 395.5 c 128,-1,13
 244 412 244 412 289 412 c 0,14,15
 358 412 358 412 400 365 c 128,-1,16
 442 318 442 318 442 224 c 0,17,18
 442 131 442 131 400 83 c 128,-1,19
 358 35 358 35 289 35 c 0,20,21
 246 35 246 35 219 49 c 128,-1,22
 192 63 192 63 175 84 c 1,23,-1
 171 84 l 1,24,25
 172 72 172 72 172.5 56.5 c 128,-1,26
 173 41 173 41 173 28 c 2,27,-1
 173 -120 l 1,28,-1
 85 -120 l 1,0,-1
269 110 m 0,29,30
 310 110 310 110 330.5 142.5 c 128,-1,31
 351 175 351 175 351 224 c 0,32,33
 351 274 351 274 331.5 306.5 c 128,-1,34
 312 339 312 339 271 339 c 0,35,36
 231 339 231 339 206.5 315 c 128,-1,37
 182 291 182 291 175 259 c 1,38,-1
 247 259 l 1,39,-1
 247 191 l 1,40,-1
 174 191 l 1,41,42
 179 157 179 157 202.5 133.5 c 128,-1,43
 226 110 226 110 269 110 c 0,29,30
EndSplineSet
EndChar

StartChar: u104EE
Encoding: 66798 66798 68
Width: 427
GlyphClass: 2
Flags: W
AnchorPoint: "Anchor-0" 220 600 basechar 0
LayerCount: 2
Fore
SplineSet
344 -11 m 1,0,1
 330 0 330 0 296.5 20.5 c 128,-1,2
 263 41 263 41 222 72 c 128,-1,3
 181 103 181 103 143 144.5 c 128,-1,4
 105 186 105 186 80 240.5 c 128,-1,5
 55 295 55 295 55 362 c 0,6,7
 55 411 55 411 78 453 c 128,-1,8
 101 495 101 495 146 520.5 c 128,-1,9
 191 546 191 546 256 546 c 0,10,11
 297 546 297 546 335 537.5 c 128,-1,12
 373 529 373 529 397 517 c 1,13,-1
 370 444 l 1,14,15
 346 453 346 453 314 461 c 128,-1,16
 282 469 282 469 254 469 c 0,17,18
 215 469 215 469 191 452.5 c 128,-1,19
 167 436 167 436 156.5 410 c 128,-1,20
 146 384 146 384 146 355 c 0,21,22
 146 299 146 299 173 253 c 128,-1,23
 200 207 200 207 240 170 c 128,-1,24
 280 133 280 133 322 104.5 c 128,-1,25
 364 76 364 76 394 55 c 1,26,-1
 344 -11 l 1,0,1
EndSplineSet
EndChar

StartChar: u104EF
Encoding: 66799 66799 69
Width: 647
GlyphClass: 2
Flags: W
AnchorPoint: "Anchor-0" 255 600 basechar 0
LayerCount: 2
Fore
SplineSet
543 -174 m 1,0,1
 517 -155 517 -155 505.5 -123 c 128,-1,2
 494 -91 494 -91 494 -48 c 0,3,4
 494 -13 494 -13 500.5 16.5 c 128,-1,5
 507 46 507 46 514 77 c 128,-1,6
 521 108 521 108 521 146 c 2,7,-1
 521 172 l 2,8,9
 521 209 521 209 504.5 237.5 c 128,-1,10
 488 266 488 266 449 282.5 c 128,-1,11
 410 299 410 299 342 299 c 0,12,13
 332 299 332 299 322 298.5 c 128,-1,14
 312 298 312 298 303 297 c 1,15,16
 367 271 367 271 405 238.5 c 128,-1,17
 443 206 443 206 443 148 c 0,18,19
 443 75 443 75 390 32.5 c 128,-1,20
 337 -10 337 -10 239 -10 c 0,21,22
 185 -10 185 -10 139.5 6.5 c 128,-1,23
 94 23 94 23 67 58 c 128,-1,24
 40 93 40 93 40 148 c 0,25,26
 40 235 40 235 119 294 c 1,27,28
 91 314 91 314 75.5 339.5 c 128,-1,29
 60 365 60 365 60 404 c 0,30,31
 60 472 60 472 115.5 509 c 128,-1,32
 171 546 171 546 261 546 c 0,33,34
 310 546 310 546 352.5 536.5 c 128,-1,35
 395 527 395 527 432 510 c 1,36,-1
 402 440 l 1,37,38
 368 454 368 454 331 464 c 128,-1,39
 294 474 294 474 255 474 c 0,40,41
 201 474 201 474 172.5 456.5 c 128,-1,42
 144 439 144 439 144 409 c 0,43,44
 144 386 144 386 155 370.5 c 128,-1,45
 166 355 166 355 196 340 c 1,46,47
 229 354 229 354 265.5 362 c 128,-1,48
 302 370 302 370 341 370 c 0,49,50
 438 370 438 370 496.5 344 c 128,-1,51
 555 318 555 318 582 273 c 128,-1,52
 609 228 609 228 609 172 c 2,53,-1
 609 157 l 2,54,55
 609 108 609 108 597.5 60.5 c 128,-1,56
 586 13 586 13 586 -38 c 0,57,58
 586 -66 586 -66 592 -90 c 128,-1,59
 598 -114 598 -114 617 -131 c 1,60,-1
 543 -174 l 1,0,1
239 62 m 0,61,62
 301 62 301 62 329.5 83.5 c 128,-1,63
 358 105 358 105 358 140 c 0,64,65
 358 160 358 160 347 176 c 128,-1,66
 336 192 336 192 307.5 208 c 128,-1,67
 279 224 279 224 226 244 c 2,68,-1
 188 259 l 1,69,70
 162 241 162 241 143.5 215.5 c 128,-1,71
 125 190 125 190 125 149 c 0,72,73
 125 106 125 106 152 84 c 128,-1,74
 179 62 179 62 239 62 c 0,61,62
EndSplineSet
EndChar

StartChar: u104F0
Encoding: 66800 66800 70
Width: 599
GlyphClass: 2
Flags: W
AnchorPoint: "Anchor-0" 255 600 basechar 0
LayerCount: 2
Fore
SplineSet
100 0 m 1,0,-1
 178 465 l 1,1,-1
 15 465 l 1,2,-1
 15 536 l 1,3,-1
 280 536 l 2,4,5
 405 536 405 536 474.5 469 c 128,-1,6
 544 402 544 402 544 273 c 0,7,8
 544 137 544 137 467.5 68.5 c 128,-1,9
 391 0 391 0 253 0 c 2,10,-1
 100 0 l 1,0,-1
202 71 m 1,11,-1
 245 71 l 2,12,13
 452 71 452 71 452 271 c 0,14,15
 452 371 452 371 404.5 418 c 128,-1,16
 357 465 357 465 281 465 c 2,17,-1
 268 465 l 1,18,-1
 202 71 l 1,11,-1
EndSplineSet
EndChar

StartChar: u104F1
Encoding: 66801 66801 71
Width: 599
GlyphClass: 2
Flags: W
AnchorPoint: "Anchor-0" 255 600 basechar 0
LayerCount: 2
Fore
SplineSet
100 0 m 1,0,-1
 139 233 l 1,1,-1
 77 233 l 1,2,-1
 77 301 l 1,3,-1
 150 301 l 1,4,-1
 178 465 l 1,5,-1
 15 465 l 1,6,-1
 15 536 l 1,7,-1
 280 536 l 2,8,9
 405 536 405 536 474.5 469 c 128,-1,10
 544 402 544 402 544 273 c 0,11,12
 544 137 544 137 467.5 68.5 c 128,-1,13
 391 0 391 0 253 0 c 2,14,-1
 100 0 l 1,0,-1
202 71 m 1,15,-1
 245 71 l 2,16,17
 452 71 452 71 452 271 c 0,18,19
 452 371 452 371 404.5 418 c 128,-1,20
 357 465 357 465 281 465 c 2,21,-1
 268 465 l 1,22,-1
 241 301 l 1,23,-1
 304 301 l 1,24,-1
 304 233 l 1,25,-1
 229 233 l 1,26,-1
 202 71 l 1,15,-1
EndSplineSet
EndChar

StartChar: u104F2
Encoding: 66802 66802 72
Width: 530
GlyphClass: 2
Flags: W
AnchorPoint: "Anchor-0" 280 600 basechar 0
LayerCount: 2
Fore
SplineSet
234 -131 m 0,0,1
 169 -131 169 -131 120.5 -117 c 128,-1,2
 72 -103 72 -103 46 -69.5 c 128,-1,3
 20 -36 20 -36 20 22 c 0,4,5
 20 63 20 63 39 93 c 128,-1,6
 58 123 58 123 90.5 145 c 128,-1,7
 123 167 123 167 161 182 c 1,8,-1
 203 468 l 1,9,-1
 112 468 l 1,10,-1
 112 536 l 1,11,-1
 244 536 l 2,12,13
 358 536 358 536 419 489 c 128,-1,14
 480 442 480 442 480 359 c 0,15,16
 480 301 480 301 459.5 263 c 128,-1,17
 439 225 439 225 405.5 201.5 c 128,-1,18
 372 178 372 178 330.5 163 c 128,-1,19
 289 148 289 148 247 135 c 0,20,21
 210 124 210 124 177.5 108.5 c 128,-1,22
 145 93 145 93 125 72 c 128,-1,23
 105 51 105 51 105 22 c 0,24,25
 105 -21 105 -21 135 -40.5 c 128,-1,26
 165 -60 165 -60 232 -60 c 0,27,28
 279 -60 279 -60 325 -49.5 c 128,-1,29
 371 -39 371 -39 402 -23 c 1,30,-1
 402 -101 l 1,31,32
 375 -110 375 -110 332.5 -120.5 c 128,-1,33
 290 -131 290 -131 234 -131 c 0,0,1
249 212 m 1,34,35
 288 224 288 224 321 239.5 c 128,-1,36
 354 255 354 255 374.5 281.5 c 128,-1,37
 395 308 395 308 395 351 c 0,38,39
 395 446 395 446 286 464 c 1,40,-1
 249 212 l 1,34,35
EndSplineSet
EndChar

StartChar: u104F3
Encoding: 66803 66803 73
Width: 530
GlyphClass: 2
Flags: W
AnchorPoint: "Anchor-0" 280 600 basechar 0
LayerCount: 2
Fore
SplineSet
234 -131 m 0,0,1
 169 -131 169 -131 120.5 -117 c 128,-1,2
 72 -103 72 -103 46 -69.5 c 128,-1,3
 20 -36 20 -36 20 22 c 0,4,5
 20 63 20 63 39 93 c 128,-1,6
 58 123 58 123 90.5 145 c 128,-1,7
 123 167 123 167 161 182 c 1,8,-1
 181 319 l 1,9,-1
 112 319 l 1,10,-1
 112 387 l 1,11,-1
 191 387 l 1,12,-1
 203 468 l 1,13,-1
 112 468 l 1,14,-1
 112 536 l 1,15,-1
 244 536 l 2,16,17
 358 536 358 536 419 489 c 128,-1,18
 480 442 480 442 480 359 c 0,19,20
 480 301 480 301 459.5 263 c 128,-1,21
 439 225 439 225 405.5 201.5 c 128,-1,22
 372 178 372 178 330.5 163 c 128,-1,23
 289 148 289 148 247 135 c 0,24,25
 210 124 210 124 177.5 108.5 c 128,-1,26
 145 93 145 93 125 72 c 128,-1,27
 105 51 105 51 105 22 c 0,28,29
 105 -21 105 -21 135 -40.5 c 128,-1,30
 165 -60 165 -60 232 -60 c 0,31,32
 279 -60 279 -60 325 -49.5 c 128,-1,33
 371 -39 371 -39 402 -23 c 1,34,-1
 402 -101 l 1,35,36
 375 -110 375 -110 332.5 -120.5 c 128,-1,37
 290 -131 290 -131 234 -131 c 0,0,1
249 212 m 1,38,39
 288 224 288 224 321 239.5 c 128,-1,40
 354 255 354 255 374.5 281.5 c 128,-1,41
 395 308 395 308 395 351 c 0,42,43
 395 446 395 446 286 464 c 1,44,-1
 275 387 l 1,45,-1
 339 387 l 1,46,-1
 339 319 l 1,47,-1
 265 319 l 1,48,-1
 249 212 l 1,38,39
EndSplineSet
EndChar

StartChar: u104F4
Encoding: 66804 66804 74
Width: 530
GlyphClass: 2
Flags: W
AnchorPoint: "Anchor-0" 280 600 basechar 0
LayerCount: 2
Fore
SplineSet
-23 -15 m 1,0,-1
 -23 53 l 1,1,-1
 23 53 l 1,2,3
 34 100 34 100 72.5 131 c 128,-1,4
 111 162 111 162 161 182 c 1,5,-1
 203 468 l 1,6,-1
 112 468 l 1,7,-1
 112 536 l 1,8,-1
 244 536 l 2,9,10
 358 536 358 536 419 489 c 128,-1,11
 480 442 480 442 480 359 c 0,12,13
 480 301 480 301 459.5 263 c 128,-1,14
 439 225 439 225 405.5 201.5 c 128,-1,15
 372 178 372 178 330.5 163 c 128,-1,16
 289 148 289 148 247 135 c 0,17,18
 202 121 202 121 164.5 101.5 c 128,-1,19
 127 82 127 82 112 53 c 1,20,-1
 204 53 l 1,21,-1
 204 -15 l 1,22,-1
 112 -15 l 1,23,24
 134 -60 134 -60 232 -60 c 0,25,26
 279 -60 279 -60 325 -49.5 c 128,-1,27
 371 -39 371 -39 402 -23 c 1,28,-1
 402 -101 l 1,29,30
 375 -110 375 -110 332.5 -120.5 c 128,-1,31
 290 -131 290 -131 234 -131 c 0,32,33
 147 -131 147 -131 91.5 -105.5 c 128,-1,34
 36 -80 36 -80 23 -15 c 1,35,-1
 -23 -15 l 1,0,-1
249 212 m 1,36,37
 288 224 288 224 321 239.5 c 128,-1,38
 354 255 354 255 374.5 281.5 c 128,-1,39
 395 308 395 308 395 351 c 0,40,41
 395 446 395 446 286 464 c 1,42,-1
 249 212 l 1,36,37
EndSplineSet
EndChar

StartChar: u104F5
Encoding: 66805 66805 75
Width: 624
GlyphClass: 2
Flags: W
AnchorPoint: "Anchor-0" 230 600 basechar 0
LayerCount: 2
Fore
SplineSet
520 -174 m 1,0,1
 494 -155 494 -155 482.5 -123 c 128,-1,2
 471 -91 471 -91 471 -48 c 0,3,4
 471 -13 471 -13 478 16.5 c 128,-1,5
 485 46 485 46 491.5 77 c 128,-1,6
 498 108 498 108 498 146 c 2,7,-1
 498 164 l 2,8,9
 498 292 498 292 386 292 c 0,10,11
 354 292 354 292 329.5 280 c 128,-1,12
 305 268 305 268 291 236.5 c 128,-1,13
 277 205 277 205 277 146 c 2,14,-1
 277 0 l 1,15,-1
 188 0 l 1,16,-1
 188 464 l 1,17,-1
 21 464 l 1,18,-1
 21 536 l 1,19,-1
 443 536 l 1,20,-1
 443 464 l 1,21,-1
 277 464 l 1,22,-1
 277 322 l 1,23,-1
 279 322 l 1,24,25
 288 335 288 335 318 350.5 c 128,-1,26
 348 366 348 366 396 366 c 0,27,28
 484 366 484 366 535 319.5 c 128,-1,29
 586 273 586 273 586 170 c 2,30,-1
 586 157 l 2,31,32
 586 108 586 108 574.5 60.5 c 128,-1,33
 563 13 563 13 563 -38 c 0,34,35
 563 -66 563 -66 569 -90 c 128,-1,36
 575 -114 575 -114 594 -131 c 1,37,-1
 520 -174 l 1,0,1
EndSplineSet
EndChar

StartChar: u104F6
Encoding: 66806 66806 76
Width: 618
GlyphClass: 2
Flags: W
AnchorPoint: "Anchor-0" 300 600 basechar 0
LayerCount: 2
Fore
SplineSet
306 -10 m 0,0,1
 183 -10 183 -10 131 45 c 128,-1,2
 79 100 79 100 79 216 c 2,3,-1
 79 536 l 1,4,-1
 168 536 l 1,5,-1
 168 201 l 2,6,7
 168 131 168 131 200 97 c 128,-1,8
 232 63 232 63 303 63 c 0,9,10
 377 63 377 63 410.5 96 c 128,-1,11
 444 129 444 129 444 201 c 2,12,-1
 444 536 l 1,13,-1
 533 536 l 1,14,-1
 533 216 l 2,15,16
 533 100 533 100 479 45 c 128,-1,17
 425 -10 425 -10 306 -10 c 0,0,1
EndSplineSet
EndChar

StartChar: u104F7
Encoding: 66807 66807 77
Width: 447
GlyphClass: 2
Flags: W
AnchorPoint: "Anchor-0" 210 600 basechar 0
LayerCount: 2
Fore
SplineSet
171 0 m 1,0,-1
 268 260 l 1,1,-1
 60 260 l 1,2,-1
 164 536 l 1,3,-1
 256 536 l 1,4,-1
 178 330 l 1,5,-1
 387 330 l 1,6,-1
 263 0 l 1,7,-1
 171 0 l 1,0,-1
EndSplineSet
EndChar

StartChar: u104F8
Encoding: 66808 66808 78
Width: 690
GlyphClass: 2
Flags: W
AnchorPoint: "Anchor-0" 345 700 basechar 0
LayerCount: 2
Fore
SplineSet
302 0 m 1,0,-1
 302 396 l 1,1,2
 238 390 238 390 195 339.5 c 128,-1,3
 152 289 152 289 152 183 c 2,4,-1
 152 50 l 1,5,-1
 65 50 l 1,6,-1
 65 180 l 2,7,8
 65 323 65 323 127 393.5 c 128,-1,9
 189 464 189 464 302 469 c 1,10,-1
 302 640 l 1,11,-1
 388 640 l 1,12,-1
 388 469 l 1,13,14
 501 464 501 464 563 393.5 c 128,-1,15
 625 323 625 323 625 180 c 2,16,-1
 625 50 l 1,17,-1
 538 50 l 1,18,-1
 538 183 l 2,19,20
 538 289 538 289 495 340 c 128,-1,21
 452 391 452 391 388 396 c 1,22,-1
 388 0 l 1,23,-1
 302 0 l 1,0,-1
EndSplineSet
EndChar

StartChar: u104F9
Encoding: 66809 66809 79
Width: 690
GlyphClass: 2
Flags: W
AnchorPoint: "Anchor-0" 345 700 basechar 0
LayerCount: 2
Fore
SplineSet
302 0 m 1,0,-1
 302 101 l 1,1,2
 189 107 189 107 127 177 c 128,-1,3
 65 247 65 247 65 390 c 2,4,-1
 65 470 l 1,5,-1
 152 470 l 1,6,-1
 152 387 l 2,7,8
 152 281 152 281 195 230.5 c 128,-1,9
 238 180 238 180 302 175 c 1,10,-1
 302 640 l 1,11,-1
 388 640 l 1,12,-1
 388 174 l 1,13,14
 452 179 452 179 495 230 c 128,-1,15
 538 281 538 281 538 387 c 2,16,-1
 538 470 l 1,17,-1
 625 470 l 1,18,-1
 625 390 l 2,19,20
 625 247 625 247 563 177 c 128,-1,21
 501 107 501 107 388 101 c 1,22,-1
 388 0 l 1,23,-1
 302 0 l 1,0,-1
EndSplineSet
EndChar

StartChar: u104FA
Encoding: 66810 66810 80
Width: 444
GlyphClass: 2
Flags: W
AnchorPoint: "Anchor-0" 200 600 basechar 0
LayerCount: 2
Fore
SplineSet
-4 0 m 1,0,-1
 327 468 l 1,1,-1
 56 468 l 1,2,-1
 56 536 l 1,3,-1
 424 536 l 1,4,-1
 424 470 l 1,5,-1
 91 0 l 1,6,-1
 -4 0 l 1,0,-1
EndSplineSet
EndChar

StartChar: u104FB
Encoding: 66811 66811 81
Width: 502
GlyphClass: 2
Flags: W
AnchorPoint: "Anchor-0" 210 600 basechar 0
LayerCount: 2
Fore
SplineSet
393 -174 m 1,0,1
 385 -159 385 -159 379 -135.5 c 128,-1,2
 373 -112 373 -112 373 -75 c 2,3,-1
 373 7 l 2,4,5
 373 52 373 52 341 74.5 c 128,-1,6
 309 97 309 97 264 97 c 0,7,8
 216 97 216 97 180.5 86 c 128,-1,9
 145 75 145 75 110 28 c 1,10,-1
 99 0 l 1,11,-1
 26 0 l 1,12,-1
 26 21 l 1,13,-1
 318 468 l 1,14,-1
 47 468 l 1,15,-1
 47 536 l 1,16,-1
 415 536 l 1,17,-1
 415 492 l 1,18,-1
 196 157 l 1,19,20
 214 162 214 162 233.5 165 c 128,-1,21
 253 168 253 168 276 168 c 0,22,23
 323 168 323 168 365.5 151.5 c 128,-1,24
 408 135 408 135 434.5 99 c 128,-1,25
 461 63 461 63 461 6 c 2,26,-1
 461 -68 l 2,27,28
 461 -78 461 -78 464 -99 c 128,-1,29
 467 -120 467 -120 472 -131 c 1,30,-1
 393 -174 l 1,0,1
EndSplineSet
EndChar
